<?xml version="1.0" encoding="iso-8859-1"?>
<!-- Generator: Adobe Illustrator 19.0.0, SVG Export Plug-In . SVG Version: 6.00 Build 0)  -->
<svg version="1.1" id="Layer_1" xmlns="http://www.w3.org/2000/svg" xmlns:xlink="http://www.w3.org/1999/xlink" x="0px" y="0px"
	 viewBox="0 0 496.2 496.2" style="enable-background:new 0 0 496.2 496.2;" xml:space="preserve">
<path style="fill:#4ABC96;" d="M248.1,0C111.1,0,0,111.1,0,248.1s111.1,248.1,248.1,248.1s248.1-111.1,248.1-248.1S385.1,0,248.1,0z
	"/>
<rect x="153" y="136.3" style="fill:#070707;" width="189.9" height="248.1"/>
<path style="fill:#E2A379;" d="M285.9,335.4c0,0-8.9,17.3-38.1,17.3s-37.5-17.3-37.5-17.3s-7,54.7,37.9,54.7
	S285.9,335.4,285.9,335.4z"/>
<path style="fill:#F4B382;" d="M394.8,382.8c-6-22.2-51.6-41.1-108.8-47.3h-75.8c-57.2,6.2-103,25.1-109,47.3
	c-3.3,12.2-7,35.2-10.1,57.5c38,31.1,85.4,51.1,137.2,55.1c0.1,0,0.3,0,0.4,0c1.9,0.1,3.8,0.3,5.8,0.4c0.3,0,0.6,0,0.9,0
	c1.8,0.1,3.7,0.2,5.6,0.2c0.3,0,0.6,0,0.8,0c2.1,0.1,4.1,0.1,6.2,0.1h0.1h0.1c2.1,0,4.2,0,6.2-0.1c0.3,0,0.6,0,0.8,0
	c1.9-0.1,3.7-0.1,5.6-0.2c0.3,0,0.6,0,0.9,0c1.9-0.1,3.8-0.2,5.8-0.4c0.1,0,0.3,0,0.4,0c51.9-4.1,99.2-24.1,137.2-55.1
	C401.8,417.9,398.1,394.9,394.8,382.8z"/>
<path style="fill:#E2A379;" d="M293,282.1h-89.8c14,36.6,1.1,54,1.1,54l9.3,39.3h68.8l9.3-39.3C291.9,336.1,279,318.7,293,282.1z"/>
<path style="fill:#E8E8D9;" d="M326.3,384.6H169.9l-25.8,88.9c25.9,12,54.3,19.6,84.2,21.9c0.1,0,0.3,0,0.4,0
	c1.9,0.1,3.8,0.3,5.8,0.4c0.3,0,0.6,0,0.9,0c1.8,0.1,3.7,0.2,5.6,0.2c0.3,0,0.6,0,0.8,0c2.1,0.1,4.1,0.1,6.2,0.1h0.1h0.1
	c2.1,0,4.2,0,6.2-0.1c0.3,0,0.6,0,0.8,0c1.9-0.1,3.7-0.1,5.6-0.2c0.3,0,0.6,0,0.9,0c1.9-0.1,3.8-0.2,5.8-0.4c0.1,0,0.3,0,0.4,0
	c29.9-2.3,58.3-10,84.3-22L326.3,384.6z"/>
<path style="fill:#B5A023;" d="M291.3,335.4c0,0-4,30.3-43.2,30.3c-39.1,0-43.1-30.3-43.1-30.3c-34.5,3.7-59.6,12.1-79.5,23
	c56.1,12.7,56.3,69.7,122.4,69.7s65.8-56.8,122.7-69.7C350.7,347.5,325.7,339.2,291.3,335.4z"/>
<path style="fill:#2B0B33;" d="M304.2,337.1c-1.6,7.3-11,38.1-56.1,38.1s-54.5-30.8-56-38.1c-24.4,3.7-43.8,10-59.9,17.8
	c49.5,15.5,52.4,67.8,115.8,67.8s65.7-52.2,115.9-67.8C347.8,347.1,328.6,340.8,304.2,337.1z"/>
<path style="fill:#1F3147;" d="M304.2,337.1c-1.6,7.3-11,38.1-56.1,38.1s-54.5-30.8-56-38.1c-10.9,1.7-20.8,3.8-29.9,6.4
	c24.7,21.3,38.2,50.7,85.7,50.7c47.7,0,60.8-29.5,85.8-50.8C324.8,340.9,315,338.8,304.2,337.1z"/>
<path style="fill:#DBC142;" d="M333.7,343.5c-24.9,21.3-38.1,50.8-85.8,50.8c-47.6,0-61-29.5-85.7-50.7c-2.7,0.8-5.3,1.6-7.8,2.4
	c30.1,21.2,41.2,56.8,93.5,56.8c52.4,0,63.1-35.7,93.6-56.9C339,345,336.4,344.2,333.7,343.5z"/>
<path style="fill:#B5A023;" d="M291.3,335.4c0,0-4,30.3-43.2,30.3c-39.1,0-43.1-30.3-43.1-30.3c-4.5,0.5-8.7,1.1-12.9,1.7
	c1.6,7.2,10.9,41.2,56,41.2s54.5-34,56.1-41.2C300,336.5,295.7,335.9,291.3,335.4z"/>
<path style="fill:#F4B382;" d="M248.1,77.1c-44,0-79.8,21.2-79.8,113.6c0,31.3,5.6,40.3,14,59.2c18.4,41.6,50.3,56.1,65.8,56.1
	s47.3-14.5,65.8-56.1c8.4-18.9,14-27.9,14-59.2C327.9,98.3,292.1,77.1,248.1,77.1z"/>
<g>
	<path style="fill:#5EBFA3;" d="M286,182.1c-10.9-1.1-16.8,4.2-18.2,5.5c-6,5.1-4.2,16.8-4.2,16.8l30.2-6l8.3,0.8l4.9-2.1
		C294.7,188.4,299.2,183.5,286,182.1z"/>
	<path style="fill:#5EBFA3;" d="M228.4,187.6c-1.5-1.2-7.3-6.6-18.2-5.5c-13.2,1.4-8.7,6.3-21.1,15.1l4.9,2.1l8.3-0.8l30.2,6
		C232.6,204.4,234.4,192.7,228.4,187.6z"/>
</g>
<g>
	<path style="fill:#191919;" d="M248.1,69.1L248.1,69.1L248.1,69.1c-37.2,0-77.8,12.3-95.1,59.2h190.1
		C325.9,81.4,285.3,69.1,248.1,69.1z"/>
	<path style="fill:#191919;" d="M303.7,197.9c-1.1,0.1-2.3,0.1-3.4,0c-2.2-0.2-4.3-0.8-6.3-1.8c-0.1,0-0.2-0.1-0.3-0.1
		c-0.8-0.2-1.7,0.3-1.8,1.2c-0.2,0.8,1.4,1.9,1.4,1.9c2.4,0.5,4.7,0.6,7.1,0.3c1.2-0.2,2.4-0.4,3.5-0.8c1.1-0.4,2.2-0.9,3.2-1.5
		C306,197.6,304.8,197.8,303.7,197.9z"/>
	<path style="fill:#191919;" d="M202.5,196.1c-0.1,0-0.2,0.1-0.3,0.1c-2,0.9-4.1,1.6-6.3,1.8c-1.1,0.1-2.2,0.1-3.4,0
		c-1.1-0.1-2.3-0.4-3.3-0.8c1,0.7,2,1.1,3.2,1.5c1.1,0.4,2.3,0.7,3.5,0.8c2.4,0.3,4.6,0.2,7.1-0.3c0,0,1.6-1.1,1.4-1.9
		C204.1,196.4,203.3,195.9,202.5,196.1z"/>
	<path style="fill:#191919;" d="M327.6,117.6H168.4L153,163.2c0,0,50.4-12.5,94.9-12.5s95,12.5,95,12.5L327.6,117.6z"/>
</g>
<path style="fill:#DBC142;" d="M332,106.6c0,0-32.9-10.3-83.9-10.3s-83.9,10.3-83.9,10.3c-4.3,6.2-8.1,13.4-11.2,21.7
	c0,0,36.5-10.3,95-10.3s95.1,10.3,95.1,10.3C340.1,120,336.3,112.8,332,106.6z"/>
<rect x="279.66" y="106.284" transform="matrix(-0.7071 0.7071 -0.7071 -0.7071 560.3734 -13.1472)" style="fill:#D33D3D;" width="6.5" height="6.4"/>
<polygon style="fill:#EF5959;" points="278.3,109.6 282.9,114.1 283,104.9 "/>
<rect x="301.125" y="108.875" transform="matrix(-0.7071 0.7071 -0.7071 -0.7071 598.8858 -23.8159)" style="fill:#D33D3D;" width="6.5" height="6.5"/>
<polygon style="fill:#EF5959;" points="299.8,112.1 304.3,116.7 304.4,107.5 "/>
<rect x="322.557" y="111.93" transform="matrix(-0.7072 0.707 -0.707 -0.7072 637.6526 -33.7107)" style="fill:#D33D3D;" width="6.5" height="6.5"/>
<polygon style="fill:#EF5959;" points="321.2,115.1 325.8,119.7 325.8,110.5 "/>
<rect x="209.591" y="106.25" transform="matrix(-0.7072 0.707 -0.707 -0.7072 440.7803 36.4601)" style="fill:#D33D3D;" width="6.5" height="6.5"/>
<polygon style="fill:#EF5959;" points="212.8,104.9 212.8,114.1 217.4,109.6 "/>
<rect x="188.083" y="108.862" transform="matrix(-0.7071 0.7071 -0.7071 -0.7071 405.8158 56.1302)" style="fill:#D33D3D;" width="6.4" height="6.5"/>
<polygon style="fill:#EF5959;" points="191.3,107.5 191.4,116.7 196,112.1 "/>
<rect x="166.677" y="111.836" transform="matrix(-0.7071 0.7071 -0.7071 -0.7071 371.3765 76.3419)" style="fill:#D33D3D;" width="6.4" height="6.5"/>
<polygon style="fill:#EF5959;" points="169.9,110.5 170,119.7 174.5,115.1 "/>
<path style="fill:#B5A023;" d="M272.8,73c-2.9-4.6-7.3-8.1-12.7-8.1c-3.7,0-8.3,2.9-12.4,2.9s-8.7-3-12.4-2.9
	c-5.4,0-9.8,3.5-12.7,8.1c-11.8,18.7,5.5,47.6,9.2,54.4c4.9,8.9,4.8,24.9,4.6,31.9c-0.1,2.1,0.9,3.1,2.5,2.7
	c2.3-0.6,5.7-1.7,8.7-1.7c3.1,0,6.8,1.3,9.2,1.8c1.5,0.4,2.3-0.7,2.2-2.9c-0.3-7-0.3-22.9,4.6-31.8C267.3,120.6,284.6,91.7,272.8,73
	z"/>
<path style="fill:#277869;" d="M267.4,81.9c-2.3-3.6-5.7-6.3-9.9-6.4c-2.9,0-6.5,4.4-9.7,4.4s-6.8-4.4-9.7-4.4
	c-4.2,0-7.7,2.8-9.9,6.4c-9.2,14.6,6.1,37.2,8.6,42.6c4.4,9.1,4.4,34.5,4.4,34.5h13.2c0,0,0-25.4,4.4-34.5
	C261.3,119.1,276.6,96.5,267.4,81.9z"/>
<path style="fill:#359B88;" d="M247.7,79.9c-3.2,0-6.8-4.4-9.7-4.4c-4.2,0-7.7,2.8-9.9,6.4c-9.2,14.6,6.1,37.2,8.6,42.6
	c4.4,9.1,4.4,34.5,4.4,34.5h13.2C254.3,159,251,79.9,247.7,79.9z"/>
<g>
	<rect x="240.9" y="86.5" style="fill:#B5A023;" width="13.6" height="72.5"/>
	<path style="fill:#B5A023;" d="M260.1,64.9c-3.7,0-8.3,2.9-12.4,2.9s-8.7-3-12.4-2.9c-5.4,0-9.8,3.5-12.7,8.1
		c0,0,18.3,23.2,25.1,23.2c6.7,0,25.1-23.2,25.1-23.2C269.9,68.4,265.5,64.9,260.1,64.9z"/>
</g>
<path style="fill:#DBC142;" d="M260.1,64.9c-3.7,0-8.3,2.9-12.4,2.9s-8.7-3-12.4-2.9c-5.4,0-9.8,3.5-12.7,8.1c0,0,6.1-0.6,9,3.9
	c4.2,6.6,9.3,19.2,16.1,19.2c6.7,0,11.8-12.5,16-19.1c2.9-4.6,9.1-4.1,9.1-4.1C269.9,68.4,265.5,64.9,260.1,64.9z"/>
<g>
	<path style="fill:#917D19;" d="M252.9,98.2h-10.1c-0.5,0-0.9,0.5-0.9,1.1s0.4,1.1,0.9,1.1h10.1c0.5,0,0.9-0.5,0.9-1.1
		C253.8,98.7,253.4,98.2,252.9,98.2z"/>
	<path style="fill:#917D19;" d="M252.9,106.9h-10.1c-0.5,0-0.9,0.5-0.9,1.1s0.4,1.1,0.9,1.1h10.1c0.5,0,0.9-0.5,0.9-1.1
		C253.8,107.4,253.4,106.9,252.9,106.9z"/>
	<path style="fill:#917D19;" d="M252.9,115.9h-10.1c-0.5,0-0.9,0.5-0.9,1.1s0.4,1.1,0.9,1.1h10.1c0.5,0,0.9-0.5,0.9-1.1
		S253.4,115.9,252.9,115.9z"/>
	<path style="fill:#917D19;" d="M252.9,124.6h-10.1c-0.5,0-0.9,0.5-0.9,1.1s0.4,1.1,0.9,1.1h10.1c0.5,0,0.9-0.5,0.9-1.1
		C253.8,125.1,253.4,124.6,252.9,124.6z"/>
	<path style="fill:#917D19;" d="M252.9,133.8h-10.1c-0.5,0-0.9,0.5-0.9,1.1s0.4,1.1,0.9,1.1h10.1c0.5,0,0.9-0.5,0.9-1.1
		C253.8,134.3,253.4,133.8,252.9,133.8z"/>
	<path style="fill:#917D19;" d="M252.9,142.5h-10.1c-0.5,0-0.9,0.5-0.9,1.1s0.4,1.1,0.9,1.1h10.1c0.5,0,0.9-0.5,0.9-1.1
		C253.8,143,253.4,142.5,252.9,142.5z"/>
	<path style="fill:#917D19;" d="M252.9,151.1h-10.1c-0.5,0-0.9,0.5-0.9,1.1s0.4,1.1,0.9,1.1h10.1c0.5,0,0.9-0.5,0.9-1.1
		C253.8,151.6,253.4,151.1,252.9,151.1z"/>
</g>
<path style="fill:#CE9163;" d="M236.2,244.7c-0.4-1.5-0.5-3-0.8-4.7c-0.7,0.8-1,1.7-1.2,2.6c-0.2,0.9-0.2,1.8,0,2.6s0.7,1.7,1.4,2.3
	c0.7,0.7,1.7,1.1,2.8,1.3C237.2,247.4,236.6,246.2,236.2,244.7z"/>
<g>
	<path style="fill:#AD7550;" d="M244.7,244.8c-0.3-0.6-0.8-1.1-1.4-1.4c-0.6-0.3-1.3-0.4-2.2-0.2c-0.8,0.1-1.8,0.6-2.6,1.3
		c1.5-0.1,2.7,0.1,3.7,0.6s1.9,1.2,3,1.9C245.2,246.1,245,245.4,244.7,244.8z"/>
	<path style="fill:#AD7550;" d="M255.4,243.2c-0.8-0.2-1.6,0-2.2,0.2c-0.6,0.3-1.1,0.7-1.4,1.4c-0.3,0.6-0.5,1.3-0.4,2.2
		c1.1-0.7,1.9-1.4,3-1.9c1-0.5,2.1-0.7,3.7-0.6C257.2,243.8,256.3,243.4,255.4,243.2z"/>
</g>
<g>
	<path style="fill:#CE9163;" d="M262,242.6c-0.2-0.9-0.6-1.8-1.2-2.6c-0.3,1.7-0.4,3.2-0.8,4.7s-1,2.7-2.2,4.1
		c1.1-0.2,2.1-0.7,2.8-1.3c0.7-0.7,1.1-1.5,1.4-2.3C262.2,244.3,262.2,243.4,262,242.6z"/>
	<path style="fill:#CE9163;" d="M256.1,213.7c0.1-2.7,0.3-5.3,0.7-7.9c0.4-2.6,1.1-5.2,2.1-7.8c-1.7,2.2-2.9,4.7-3.7,7.4
		c-0.8,2.7-1.1,5.5-1.2,8.2c-0.1,2.8,0.2,5.5,0.7,8.3c0.5,2.7,1.2,5.4,2.4,7.9C256.5,224.4,256,219,256.1,213.7z"/>
	<path style="fill:#CE9163;" d="M240.1,211.4c-0.1-0.9-0.2-1.9-0.5-2.8c-0.2-0.9-0.6-1.8-1.1-2.6c-0.1,1-0.1,1.9-0.1,2.8
		c0,0.9,0.1,1.8,0.1,2.7c0.1,0.9,0.1,1.8,0.3,2.7c0.1,0.9,0.3,1.8,0.5,2.8c0.4-0.9,0.5-1.8,0.6-2.8
		C240.2,213.3,240.2,212.4,240.1,211.4z"/>
</g>
<path style="fill:#191919;" d="M263.2,204.8c0,0.5,2.3,7.6,19.4,5.3c11.1-1.5,11.8-12.2,11.8-12.2
	C274.1,186.6,263.2,204.8,263.2,204.8z"/>
<path style="fill:#F7F0EB;" d="M263.2,204.8c0.1,1.1,1.1,1.5,2,1.8c24.5,8.5,28.2-7.4,28.2-7.4C273.6,191.7,263.2,204.8,263.2,204.8
	z"/>
<ellipse style="fill:#352114;" cx="280.2" cy="201.5" rx="6.1" ry="6"/>
<g>
	<path style="fill:#191919;" d="M293.8,196.1c-23.5-11.7-30.6,8.7-30.6,8.7s10-12.5,28.9-6.1c0.6,0.2,1.3,0.4,1.3,0.4l5.3-1.5
		C296.7,197.7,293.8,196.1,293.8,196.1z"/>
	<path style="fill:#191919;" d="M304.2,189.3c-0.2-0.6-1.9-2.1-2.9-3c-12.2-11.5-25.7-8.7-33.6-5.8c-3.4,1.3-5.5,1.9-4.6,5.1
		c0.9,2.9,2.9,2.6,3.9,2.4c0.9-0.2,2.5-1,3.7-1.4c17.7-6.4,22.7-1.1,27.1,0.6C302.4,189,304.4,189.9,304.2,189.3z"/>
	<path style="fill:#191919;" d="M201.9,197.9c0,0,0.7,10.7,11.8,12.2c17.1,2.3,19.4-4.8,19.4-5.3C233,204.8,222.1,186.6,201.9,197.9
		z"/>
</g>
<path style="fill:#F7F0EB;" d="M202.9,199.2c0,0,3.7,15.9,28.2,7.4c0.9-0.3,1.9-0.8,2-1.8C233,204.8,222.6,191.7,202.9,199.2z"/>
<ellipse style="fill:#352114;" cx="216" cy="201.5" rx="6.1" ry="6"/>
<g>
	<path style="fill:#191919;" d="M202.4,196.1c0,0-3,1.6-4.8,1.6l5.3,1.4c0,0,0.5-0.1,1.3-0.4c18.9-6.4,28.9,6.1,28.9,6.1
		S226,184.3,202.4,196.1z"/>
	<path style="fill:#191919;" d="M228.5,180.5c-7.9-2.9-21.3-5.7-33.6,5.8c-1,0.9-2.7,2.4-2.9,3s1.7-0.3,6.4-2.2
		c4.4-1.8,9.4-7,27.1-0.6c1.2,0.4,2.7,1.2,3.7,1.4c0.9,0.2,3,0.5,3.9-2.4C234.1,182.4,232,181.8,228.5,180.5z"/>
</g>
<path style="fill:#D6876B;" d="M258.5,257.8c-3-0.4-10.4,2.5-10.4,2.5s-7.6-2.9-10.6-2.5c-4.8,0.7-11.9,9-11.9,10.3
	c0,0,10.1,5.2,22.5,5.2s22.5-5.2,22.5-5.2S263.4,258.5,258.5,257.8z"/>
<path style="fill:#CC785E;" d="M254.2,264.4c-2-0.1-4.5,1.7-6.1,1.7c-1.9,0-4.8-1.8-7-1.6c-13.1,0.8-15.5,3.6-15.5,3.6
	s10.1,9.1,22.5,9.1s22.5-9.1,22.5-9.1S267.9,265.2,254.2,264.4z"/>
<path style="fill:#191919;" d="M205.9,128.3h-52.8c0,0-10.7,11.3-30.9,97.8c-7.8,33.5-11.4,74.1-13,105.3v46.2l78.5,28l-2.9-167.3
	C188.4,166.9,205.9,128.3,205.9,128.3z"/>
<g>
</g>
<g>
</g>
<g>
</g>
<g>
</g>
<g>
</g>
<g>
</g>
<g>
</g>
<g>
</g>
<g>
</g>
<g>
</g>
<g>
</g>
<g>
</g>
<g>
</g>
<g>
</g>
<g>
</g>
</svg>
