<?xml version="1.0" encoding="iso-8859-1"?>
<!-- Generator: Adobe Illustrator 19.0.0, SVG Export Plug-In . SVG Version: 6.00 Build 0)  -->
<svg version="1.1" id="Layer_1" xmlns="http://www.w3.org/2000/svg" xmlns:xlink="http://www.w3.org/1999/xlink" x="0px" y="0px"
	 viewBox="0 0 496.2 496.2" style="enable-background:new 0 0 496.2 496.2;" xml:space="preserve">
<path style="fill:#A3D5E0;" d="M248.1,0C111.1,0,0,111.1,0,248.1s111.1,248.1,248.1,248.1s248.1-111.1,248.1-248.1S385.1,0,248.1,0z
	"/>
<path style="fill:#6B4634;" d="M248.1,496.2c70.2,0,133.6-29.2,178.7-76c-2.8-15.1-5.6-28.9-8.3-37.4
	c-8.5-27.3-81.2-49.3-170.8-49.3s-161.5,22-170,49.3c-2.6,8.5-5.5,22.2-8.3,37.4C114.5,467,177.9,496.2,248.1,496.2z"/>
<path style="fill:#DB9A6E;" d="M248.1,61.6c-48.7,0-88.3,21.2-88.3,113.6c0,31.3,6.2,55.8,15.5,74.7c20.4,41.6,55.7,56.1,72.8,56.1
	s52.4-14.5,72.8-56.1c9.3-18.9,15.5-43.4,15.5-74.7C336.4,82.8,296.8,61.6,248.1,61.6z"/>
<g>
	<path style="fill:#472B14;" d="M306.2,178.8c-6.8-6.9-18.9-8-25.6-8c-1.1,0-2.2,0-3.3,0.1c-0.4,0-1,0.9-1,0.9s-0.5-0.9-0.7-0.8
		c-5.3,0.4-9.6,1.3-11.8,2.2l-0.3,0.1c-2.5,1-5.7,2.2-4.5,6.6c0.6,2.2,2,3.5,3.9,3.5c0.4,0,0.8-0.1,1.3-0.2c0.6-0.2,1.3-0.5,2-0.8
		c0.4-0.2,0.8-0.4,1.2-0.5c0.5-0.2,1-0.4,1.5-0.5c0.6-0.2,1.9-2.5,1.9-2.5s1.4,1.5,2.2,1.4c3.1-0.7,6.3-1,9.8-1
		c9.3,0,16.9,2.4,18.8,3.2c1.4,0.6,2.4,0.9,3.2,0.9c1.6,0,2.1-1,2.3-1.5C307.4,180.9,307.1,179.7,306.2,178.8z"/>
	<path style="fill:#472B14;" d="M232.8,173.3l-0.3-0.1c-1.1-0.4-2.8-0.9-4.8-1.3c-0.8-0.1-2.4,1.2-2.4,1.2s-0.7-1.7-1-1.8
		c-2.6-0.3-5.5-0.6-8.7-0.6c-6.6,0-18.7,1-25.6,8c-0.9,0.9-1.2,2.1-0.9,3.1c0.2,0.4,0.7,1.5,2.3,1.5c0.8,0,1.9-0.3,3.2-0.9
		c1.9-0.8,9.5-3.2,18.8-3.2c5.7,0,10.8,0.9,15.4,2.6c0.4,0.1,0.8,0.3,1.2,0.5c0.7,0.3,1.4,0.6,2,0.8c0.5,0.1,0.9,0.2,1.3,0.2
		c1.9,0,3.3-1.3,3.9-3.5C238.5,175.6,235.3,174.3,232.8,173.3z"/>
</g>
<g>
	<path style="fill:#602F0F;" d="M336.4,157.2c0-92.4-39.5-113.6-88.3-113.6c-48.7,0-88.3,21.2-88.3,113.6h95.6l18-14.4l-5,14.4
		H336.4z"/>
	<path style="fill:#602F0F;" d="M180.1,155.1l-14.6-14.3c-4.2,10.9-5.6,24.4-5.6,37.5c0,0-9.7,24.3-9.7,28.8l25.1,9.5
		C175,193.6,180.1,155.1,180.1,155.1z"/>
	<path style="fill:#602F0F;" d="M344.1,205.1c0-4.5-7.6-26.8-7.6-26.8c0-13.1-1.4-26.6-5.6-37.5l-14.7,14.3c0,0,5.1,38.5,4.9,61.5
		L344.1,205.1z"/>
</g>
<path style="fill:#6B4634;" d="M348,200.1c0,0-36.6,93.7-99.9,93.7s-95.9-93.7-95.9-93.7l-45.1-23c0,117,63.1,150.7,141,150.7
	s141-32.7,141-150.7L348,200.1z"/>
<path style="fill:#F2E9E4;" d="M282.5,189c-10.4,1.2-18.4,8-18.4,8s8.8,7.1,19.2,5.9c10.4-1.2,18.4-4.1,18.4-4.1
	S292.9,187.8,282.5,189z"/>
<circle style="fill:#443125;" cx="283.1" cy="195.9" r="6.7"/>
<path style="fill:#301609;" d="M283.3,200.7c-10.4,1.2-19.2-3.6-19.2-3.6s8.8,7.1,19.2,5.9c10.4-1.2,18.4-4.1,18.4-4.1
	S293.7,199.5,283.3,200.7z"/>
<path style="fill:#9E6E4D;" d="M282.5,189c-10.4,1.2-18.4,8-18.4,8s8-2.7,18.4-4s19.2,5.7,19.2,5.7S292.9,187.8,282.5,189z"/>
<path style="fill:#F2E9E4;" d="M213.3,189c-10.4-1.2-19.2,9.8-19.2,9.8s8,2.9,18.4,4.1c10.4,1.2,19.2-5.9,19.2-5.9
	S223.7,190.2,213.3,189z"/>
<circle style="fill:#443125;" cx="212.7" cy="195.9" r="6.7"/>
<path style="fill:#301609;" d="M212.5,200.7c-10.4-1.2-18.4-1.9-18.4-1.9s8,2.9,18.4,4.1c10.4,1.2,19.2-5.9,19.2-5.9
	S222.9,201.9,212.5,200.7z"/>
<path style="fill:#9E6E4D;" d="M213.3,189c-10.4-1.2-19.2,9.8-19.2,9.8s8.8-7,19.2-5.7s18.4,4,18.4,4S223.7,190.2,213.3,189z"/>
<path style="fill:#602F0F;" d="M277.9,247.6c-3.2-5.2-11.2-5.7-29.8-5.7s-26,0.7-29.8,5.7c-3.7,5-4.7,13.4-4.7,13.4l1.5,12.1
	l4.5-8.2c0,0,1.6-7.8,28.4-7.8s28.5,7.8,28.5,7.8l4.5,8.2l1.5-12.1C282.6,261,281,252.8,277.9,247.6z"/>
<path style="fill:#B27C57;" d="M260.1,262.1c-3.4-0.5-20.6-0.5-24.1,0c-5.5,0.8-13.7,7.7-13.7,9.2c0,2.5,11.5,6,25.8,6
	c14.3,0,25.8-3.5,25.8-6C273.9,271.3,265.6,262.9,260.1,262.1z"/>
<path style="fill:#9E6E4D;" d="M248.1,267c-15.3,0-25.8,4.4-25.8,4.4c0,2.5,11.5,6,25.8,6c14.3,0,25.8-3.5,25.8-6
	C273.9,271.4,263.4,267,248.1,267z"/>
<path style="fill:#B27C57;" d="M248.1,220.2c-9.8,0-17.8,8.7-17.8,15.1s8,8,17.8,8c9.8,0,17.8-1.6,17.8-8S257.9,220.2,248.1,220.2z"
	/>
<path style="fill:#DB9A6E;" d="M248.1,219.1c-8.8,0-16,7.8-16,13.5s7.2,7.2,16,7.2c8.8,0,16-1.5,16-7.2S256.9,219.1,248.1,219.1z"/>
<path style="fill:#6B4634;" d="M253.3,306.4c-0.8,0.6-1.2,0.9-1.2,0.9v58.1c0,0,10.3-0.6,25.3-5.1v-37.8L253.3,306.4z"/>
<path style="fill:#F4F2F2;" d="M248.1,36.1c-77.9,0-141,63.1-141,141c0,124.6,64.9,166.9,105.4,181.2c7.8,2.8,10.1,8.6,10.6,16.2
	v120.4c8.2,0.8,16.6,1.3,25,1.3s16.7-0.4,24.9-1.2V334v-9.4l-49.1-32.9c-12.3-9.7-26.8-21.3-33.3-27.2
	c-20.3-18.6-28.6-48.8-28.6-82.9c0-56.6,38.5-77.5,86-77.5s86,20.9,86,77.5c0,34.1-8.2,64.3-28.6,82.9c-11,10-45.5,36.7-52.3,42
	l24.1,16.2v37.8c39.7-12.1,111.9-52,111.9-183.4C389.1,99.2,326,36.1,248.1,36.1z"/>
<g>
</g>
<g>
</g>
<g>
</g>
<g>
</g>
<g>
</g>
<g>
</g>
<g>
</g>
<g>
</g>
<g>
</g>
<g>
</g>
<g>
</g>
<g>
</g>
<g>
</g>
<g>
</g>
<g>
</g>
</svg>
