<?xml version="1.0" encoding="iso-8859-1"?>
<!-- Generator: Adobe Illustrator 19.0.0, SVG Export Plug-In . SVG Version: 6.00 Build 0)  -->
<svg version="1.1" id="Layer_1" xmlns="http://www.w3.org/2000/svg" xmlns:xlink="http://www.w3.org/1999/xlink" x="0px" y="0px"
	 viewBox="0 0 496.2 496.2" style="enable-background:new 0 0 496.2 496.2;" xml:space="preserve">
<path style="fill:#EB9783;" d="M248.1,0C111.1,0,0,111.1,0,248.1s111.1,248.1,248.1,248.1s248.1-111.1,248.1-248.1S385.1,0,248.1,0z
	"/>
<g>
	<path style="fill:#F4E6A8;" d="M280.4,19.2c-1.2-1-3.2-0.8-4.2,0.4l-38.8,46.2c-0.5,0.6-0.8,1.4-0.7,2.2s0.4,1.5,1.1,2
		c0.5,0.5,1.2,0.7,1.9,0.7c0.2,0,0.3,0,0.5,0c0.7-0.1,1.3-0.5,1.8-1l38.8-46.2C281.8,22.2,281.7,20.3,280.4,19.2z"/>
	<path style="fill:#F4E6A8;" d="M257.2,71.1c-0.1-0.7-0.5-1.3-1-1.8L210,30.5c-1.2-1-3.2-0.8-4.2,0.4c-0.5,0.6-0.8,1.4-0.7,2.2
		s0.4,1.5,1.1,2l46.2,38.8c0.5,0.5,1.2,0.7,1.9,0.7c0.9,0,1.7-0.4,2.3-1.1C257.1,72.9,257.3,72,257.2,71.1z"/>
</g>
<path style="fill:#510806;" d="M291.7,321l-10.3-11.7h-66.6L204.5,321c15.3,46-4,47-4,47l33.8,7.6H262l33.8-7.6
	C295.8,368,276.5,367,291.7,321z"/>
<path style="fill:#EFD3BF;" d="M287,282.1h-77.8c12.1,36.6,1,53.3,1,53.3l26.9,6.1h22l26.9-6.1C286,335.4,274.9,318.7,287,282.1z"/>
<path style="fill:#F4E4D9;" d="M248.1,77.1c-44,0-79.8,5.7-79.8,98.1c0,31.3,5.6,55.8,14,74.7c18.4,41.6,50.3,56.1,65.8,56.1
	s47.3-14.5,65.8-56.1c8.4-18.9,14-43.4,14-74.7C327.9,82.8,292.1,77.1,248.1,77.1z"/>
<g>
	<path style="fill:#EFD3BF;" d="M292.6,219.7c-15.6,15.6-17.6,39-4.4,52.1c2.5,2.5,5.4,4.5,8.5,5.9c6.3-7.5,12.3-16.7,17.2-27.9
		c5.3-12,9.5-26.3,11.9-43.1C314.5,205.8,302.1,210.2,292.6,219.7z"/>
	<path style="fill:#EFD3BF;" d="M204,219.7c-9.6-9.6-22.2-14.1-33.5-13c2.4,16.8,6.5,31.1,11.9,43.1c5,11.2,10.9,20.5,17.3,28
		c3.2-1.4,6.2-3.4,8.8-6C221.6,258.7,219.6,235.4,204,219.7z"/>
</g>
<path style="fill:#D8BFAD;" d="M233.8,242.9c-0.4-1.5-0.5-3-0.8-4.7c-0.7,0.8-1,1.7-1.2,2.6c-0.2,0.9-0.2,1.8,0,2.6s0.7,1.7,1.4,2.3
	c0.7,0.7,1.7,1.1,2.8,1.3C234.8,245.7,234.2,244.4,233.8,242.9z"/>
<g>
	<path style="fill:#C9B1A1;" d="M244.7,243c-0.3-0.6-0.8-1.1-1.4-1.4c-0.6-0.3-1.3-0.4-2.2-0.2c-0.8,0.1-1.8,0.6-2.6,1.3
		c1.5-0.1,2.7,0.1,3.7,0.6s1.9,1.2,3,1.9C245.2,244.4,245,243.6,244.7,243z"/>
	<path style="fill:#C9B1A1;" d="M255.4,241.5c-0.8-0.2-1.6,0-2.2,0.2c-0.6,0.3-1.1,0.8-1.4,1.4c-0.3,0.6-0.5,1.3-0.4,2.2
		c1.1-0.7,1.9-1.4,3-1.9c1-0.5,2.1-0.7,3.7-0.6C257.2,242,256.3,241.6,255.4,241.5z"/>
</g>
<g>
	<path style="fill:#D8BFAD;" d="M264.5,240.8c-0.2-0.9-0.6-1.8-1.2-2.6c-0.3,1.7-0.4,3.2-0.8,4.7s-1,2.7-2.2,4.1
		c1.1-0.2,2.1-0.7,2.8-1.3c0.7-0.7,1.1-1.5,1.4-2.3C264.7,242.6,264.7,241.7,264.5,240.8z"/>
	<path style="fill:#D8BFAD;" d="M256.1,213.7c0.1-2.7,0.3-5.3,0.7-7.9c0.4-2.6,1.1-5.2,2.1-7.8c-1.7,2.2-2.9,4.7-3.7,7.4
		c-0.8,2.7-1.1,5.5-1.2,8.2c-0.1,2.8,0.2,5.5,0.7,8.3c0.5,2.7,1.2,5.4,2.4,7.9C256.5,224.4,256,219,256.1,213.7z"/>
	<path style="fill:#D8BFAD;" d="M240.1,211.4c-0.1-0.9-0.2-1.9-0.5-2.8c-0.2-0.9-0.6-1.8-1.1-2.6c-0.1,1-0.1,1.9-0.1,2.8
		c0,0.9,0.1,1.8,0.1,2.7c0.1,0.9,0.1,1.8,0.3,2.7c0.1,0.9,0.3,1.8,0.5,2.8c0.4-0.9,0.5-1.8,0.6-2.8
		C240.2,213.3,240.2,212.4,240.1,211.4z"/>
</g>
<path style="fill:#8C0A07;" d="M291.7,321c0,0-17,12.1-43.6,12.1S204.5,321,204.5,321c13.6,46-5.9,67-5.9,67l35.1,7.6h28.7l35.1-7.6
	C297.6,388,278.1,367,291.7,321z"/>
<path style="fill:#191919;" d="M266.4,204.5c0.1,0.6,5.7,3.5,17.7,2c14.8-1.9,14.6-9,14.6-9C276.8,191.3,266.4,204.5,266.4,204.5z"
	/>
<path style="fill:#F7F0EB;" d="M296.9,197.5c-20.9-5.1-30.6,7.1-30.6,7.1c0.1,0.5,5.5,2.6,16.9,0.9
	C297.2,203.5,296.9,197.5,296.9,197.5z"/>
<path style="fill:#21150E;" d="M288,196.2c-4.7-0.1-8.5,0.7-11.7,1.8c-0.3,0.8-0.5,1.7-0.5,2.6c0,2.2,1,4.2,2.6,5.4
	c1.5-0.1,3-0.2,4.8-0.5c2-0.3,3.7-0.7,5.2-1.1c0.7-1.1,1.2-2.4,1.2-3.8C289.6,198.9,289,197.4,288,196.2z"/>
<g>
	<path style="fill:#191919;" d="M302.2,195.8c-1.9,0.1-5.1-1.1-5.1-1.1c-25.2-8.6-30.8,9.8-30.8,9.8s9.3-11.7,29.2-7.4
		c0,0,0.9,0.2,1.3,0.2C302.5,198.5,302.2,195.8,302.2,195.8z"/>
	<path style="fill:#191919;" d="M302.2,181.7c-14.7-8-27.1-1.9-33.9,3c-3,2.1-4.9,3.2-3.1,6.1c1.6,2.6,6.1-1.8,7.1-2.5
		c15.5-10.7,33.9-3.8,33.5-4.3C305.5,183.4,303.4,182.4,302.2,181.7z"/>
	<path style="fill:#191919;" d="M197.5,197.6c0,0-0.2,7.1,14.6,9c12,1.5,17.7-1.4,17.7-2C229.8,204.5,219.4,191.3,197.5,197.6z"/>
</g>
<path style="fill:#F7F0EB;" d="M199.3,197.5c0,0-0.3,6,13.7,8c11.4,1.6,16.8-0.4,16.9-0.9C229.8,204.5,220.2,192.4,199.3,197.5z"/>
<path style="fill:#21150E;" d="M219.9,198c-3.1-1.1-7-1.9-11.7-1.8c-1,1.2-1.6,2.7-1.6,4.4c0,1.4,0.4,2.7,1.2,3.8
	c1.5,0.4,3.2,0.8,5.2,1.1c1.7,0.2,3.3,0.4,4.8,0.5c1.6-1.3,2.6-3.2,2.6-5.4C220.4,199.7,220.2,198.8,219.9,198z"/>
<g>
	<path style="fill:#191919;" d="M199.1,194.7c0,0-3.2,1.2-5.1,1.1c0,0-0.2,2.7,5.3,1.6c0.4-0.1,1.3-0.2,1.3-0.2
		c20-4.3,29.2,7.4,29.2,7.4S224.3,186.1,199.1,194.7z"/>
	<path style="fill:#191919;" d="M227.9,184.7c-6.9-4.8-19.2-10.9-33.9-3c-1.2,0.7-3.2,1.6-3.6,2.2c-0.4,0.5,18-6.3,33.5,4.3
		c1,0.7,5.6,5.1,7.1,2.5C232.8,187.9,230.9,186.8,227.9,184.7z"/>
</g>
<path style="fill:#D6876B;" d="M258.6,259.1c-3-0.4-10.5,2.5-10.6,2.6c-0.1,0-7.6-3-10.6-2.6c-4.8,0.6-11.9,7.7-11.9,8.9
	c0,0,10.1,4.5,22.5,5l0,0l0,0l0,0c12.4-0.4,22.5-5,22.5-5C270.6,266.8,263.4,259.7,258.6,259.1z"/>
<path style="fill:#CC785E;" d="M255.1,264.9c-2.2-0.1-5.1,2.2-7,2.2s-4.8-2.3-7-2.2c-13.1,0.7-15.5,3.1-15.5,3.1s10.1,7.9,22.5,7.9
	l0,0l0,0l0,0c12.4,0,22.5-7.9,22.5-7.9S268.3,265.6,255.1,264.9z"/>
<g>
	<path style="fill:#F4B382;" d="M169.8,178c-7.6,1.3-13.4,4.6-9.1,29.7c4.3,25.2,9.6,26.3,17.3,25L169.8,178z"/>
	<path style="fill:#F4B382;" d="M326.5,178l-8.1,54.8c7.6,1.3,13,0.1,17.3-25C339.9,182.6,334.1,179.3,326.5,178z"/>
</g>
<path style="fill:#8C0A07;" d="M210.2,335.4c-57.2,6.2-103,25.1-109,47.3c-3.3,12.2-7,35.2-10.1,57.5
	c42.7,34.9,97.4,55.9,156.9,55.9c35.2,0,68.7-7.3,99-20.6L210.2,335.4z"/>
<path style="fill:#590503;" d="M210.1,335.4c-6.7,0.7-13.2,1.6-19.5,2.7l140.5,143.8c5.4-1.9,10.7-4,15.9-6.3L210.1,335.4z"/>
<path style="fill:#750701;" d="M394.8,382.8c-6-22.2-51.6-41.1-108.8-47.3L149.1,475.6c30.3,13.2,63.8,20.6,99,20.6
	c59.5,0,114.1-21,156.9-55.9C401.8,417.9,398.1,394.9,394.8,382.8z"/>
<path style="fill:#590503;" d="M286,335.4L149.1,475.6c5.2,2.3,10.5,4.4,15.9,6.3l140.5-143.8C299.2,337.1,292.7,336.2,286,335.4z"
	/>
<circle style="fill:#0C0C0C;" cx="248.1" cy="81.3" r="40.2"/>
<path style="fill:#F4E6A8;" d="M266.9,73.9l-23.5-55.5c-0.5-1.1-1.6-1.8-2.8-1.8c-0.4,0-0.8,0.1-1.2,0.2c-0.7,0.3-1.3,0.9-1.6,1.6
	s-0.3,1.6,0,2.3l23.5,55.5c0.5,1.1,1.6,1.8,2.8,1.8c0.4,0,0.8-0.1,1.2-0.2c0.1,0,0.2-0.1,0.2-0.1C266.9,77,267.5,75.3,266.9,73.9z"
	/>
<g>
	<path style="fill:#191919;" d="M248.1,69.1L248.1,69.1L248.1,69.1c-37.2,0-77.8,12.3-95.1,59.2h190.1
		C325.9,81.4,285.3,69.1,248.1,69.1z"/>
	<path style="fill:#191919;" d="M327.6,117.6H168.4L153,163.2c0,0,50.4-12.5,94.9-12.5s95,12.5,95,12.5L327.6,117.6z"/>
	<path style="fill:#191919;" d="M205.9,128.3h-52.8c0,0-14.5,49.3,2.4,88.2c12.2,28,25.7,31.2,25.7,31.2
		C174.4,176.1,205.9,128.3,205.9,128.3z"/>
	<path style="fill:#191919;" d="M343.2,128.3h-52.8c0,0,31.4,47.8,24.8,119.3c0,0,13.5-3.1,25.7-31.2
		C357.7,177.6,343.2,128.3,343.2,128.3z"/>
</g>
<path style="fill:#750701;" d="M259.6,259.1c-6.2-3.2-8.3,1.9-11.5,2.3c-3.2-0.4-5.3-5.5-11.5-2.3c-1.5,0.8-2.8,2.1-6.2,3.8
	c0,0,3.5-0.6,4.6-0.2c1.3,0.5,2,2.5,2,2.5s5,7.4,11.2,7.8c6.2-0.4,11.2-7.8,11.2-7.8s0.6-2,2-2.5c1.1-0.4,4.6,0.2,4.6,0.2
	C262.4,261.2,261.1,259.9,259.6,259.1z"/>
<path style="fill:#260505;" d="M254.3,264.9c-3.7,0.5-4.5-0.8-6.2-0.9l0,0l0,0l0,0l0,0c-1.7,0-2.5,1.3-6.2,0.9
	c-1.8-0.1,5.6,2.3,6.2,2.5l0,0l0,0l0,0l0,0C248.7,267.2,256.1,264.8,254.3,264.9z"/>
<path style="fill:#5E0806;" d="M254.3,264.9c-3.7,0.5-4.5,2.2-6.2,2.2s-2.5-1.7-6.2-2.2c-1.9-0.1-3.6,0.1-5,0.3c0,0,0.4,2,1.9,7.3
	c0.8,2.8,5.2,3.4,9.3,3.4s8.5-0.6,9.3-3.4c1.5-5.3,1.9-7.3,1.9-7.3C257.8,265,256.2,264.8,254.3,264.9z"/>
<path style="fill:#E2ADAC;" d="M256.4,268.8c-1-1,1,2.4-5.2,5.2c-1.3,0.6,3,0.7,4.4-0.8C257.1,271.8,257.5,269.8,256.4,268.8z"/>
<path style="fill:#F4DECE;" d="M344.8,432.8c0-1.8-2.7-2.9-4-3.5c0.4-1.4,1.6-4,0.3-5.3c-1.3-1.3-4-0.1-5.3,0.3
	c-0.7-1.3-1.7-4-3.5-4s-2.9,2.7-3.5,4c-1.4-0.4-4-1.6-5.3-0.3c-1.3,1.3-0.1,4,0.3,5.3c-1.3,0.7-4,1.7-4,3.5s2.7,2.9,4,3.5
	c-0.4,1.4-1.6,4-0.3,5.3c1.3,1.3,4,0.1,5.3-0.3c0.7,1.3,1.7,4,3.5,4s2.9-2.7,3.5-4c1.4,0.4,4,1.6,5.3,0.3c1.3-1.3,0.1-4-0.3-5.3
	C342.1,435.7,344.8,434.6,344.8,432.8z M335.7,434.2c-0.4,0.2-0.8,0.5-1.1,0.8c-0.3,0.3-0.6,0.7-0.8,1.1c-0.4-0.1-0.9-0.2-1.4-0.2
	s-1,0.1-1.4,0.2c-0.2-0.4-0.5-0.8-0.8-1.1c-0.3-0.3-0.7-0.6-1.1-0.8c0.1-0.4,0.2-0.9,0.2-1.4s-0.1-1-0.2-1.4
	c0.4-0.2,0.8-0.5,1.1-0.8c0.3-0.3,0.6-0.7,0.8-1.1c0.4,0.1,0.9,0.2,1.4,0.2s1-0.1,1.4-0.2c0.2,0.4,0.5,0.8,0.8,1.1
	c0.3,0.3,0.7,0.6,1.1,0.8c-0.1,0.4-0.2,0.9-0.2,1.4S335.5,433.8,335.7,434.2z"/>
<circle style="fill:#EB9783;" cx="332.3" cy="432.8" r="5.4"/>
<path style="fill:#F4DECE;" d="M386.7,390.9c0-1.8-2.7-2.9-4-3.5c0.4-1.4,1.6-4,0.3-5.3c-1.3-1.3-4-0.1-5.3,0.3
	c-0.7-1.3-1.7-4-3.5-4s-2.9,2.7-3.5,4c-1.4-0.4-4-1.6-5.3-0.3c-1.3,1.3-0.1,4,0.3,5.3c-1.3,0.7-4,1.7-4,3.5s2.7,2.9,4,3.5
	c-0.4,1.4-1.6,4-0.3,5.3c1.3,1.3,4,0.1,5.3-0.3c0.7,1.3,1.7,4,3.5,4s2.9-2.7,3.5-4c1.4,0.4,4,1.6,5.3,0.3c1.3-1.3,0.1-4-0.3-5.3
	C384,393.8,386.7,392.7,386.7,390.9z M377.6,392.3c-0.4,0.2-0.8,0.5-1.1,0.8s-0.6,0.7-0.8,1.1c-0.4-0.1-0.9-0.2-1.4-0.2
	s-1,0.1-1.4,0.2c-0.2-0.4-0.5-0.8-0.8-1.1s-0.7-0.6-1.1-0.8c0.1-0.4,0.2-0.9,0.2-1.4s-0.1-1-0.2-1.4c0.4-0.2,0.8-0.5,1.1-0.8
	c0.3-0.3,0.6-0.7,0.8-1.1c0.4,0.1,0.9,0.2,1.4,0.2s1-0.1,1.4-0.2c0.2,0.4,0.5,0.8,0.8,1.1c0.3,0.3,0.7,0.6,1.1,0.8
	c-0.1,0.4-0.2,0.9-0.2,1.4C377.4,391.4,377.5,391.9,377.6,392.3z"/>
<circle style="fill:#EB9783;" cx="374.2" cy="390.9" r="5.4"/>
<path style="fill:#F4DECE;" d="M302.9,390.9c0-1.8-2.7-2.9-4-3.5c0.4-1.4,1.6-4,0.3-5.3c-1.3-1.3-4-0.1-5.3,0.3
	c-0.7-1.3-1.7-4-3.5-4s-2.9,2.7-3.5,4c-1.4-0.4-4-1.6-5.3-0.3c-1.3,1.3-0.1,4,0.3,5.3c-1.3,0.7-4,1.7-4,3.5s2.7,2.9,4,3.5
	c-0.4,1.4-1.6,4-0.3,5.3c1.3,1.3,4,0.1,5.3-0.3c0.7,1.3,1.7,4,3.5,4s2.9-2.7,3.5-4c1.4,0.4,4,1.6,5.3,0.3c1.3-1.3,0.1-4-0.3-5.3
	C300.2,393.8,302.9,392.7,302.9,390.9z M293.8,392.3c-0.4,0.2-0.8,0.5-1.1,0.8s-0.6,0.7-0.8,1.1c-0.4-0.1-0.9-0.2-1.4-0.2
	s-1,0.1-1.4,0.2c-0.2-0.4-0.5-0.8-0.8-1.1s-0.7-0.6-1.1-0.8c0.1-0.4,0.2-0.9,0.2-1.4s-0.1-1-0.2-1.4c0.4-0.2,0.8-0.5,1.1-0.8
	c0.3-0.3,0.6-0.7,0.8-1.1c0.4,0.1,0.9,0.2,1.4,0.2s1-0.1,1.4-0.2c0.2,0.4,0.5,0.8,0.8,1.1c0.3,0.3,0.7,0.6,1.1,0.8
	c-0.1,0.4-0.2,0.9-0.2,1.4C293.6,391.4,293.6,391.9,293.8,392.3z"/>
<circle style="fill:#EB9783;" cx="290.4" cy="390.9" r="5.4"/>
<path style="fill:#F4DECE;" d="M302.9,474.8c0-1.8-2.7-2.9-4-3.5c0.4-1.4,1.6-4,0.3-5.3c-1.3-1.3-4-0.1-5.3,0.3
	c-0.7-1.3-1.7-4-3.5-4s-2.9,2.7-3.5,4c-1.4-0.4-4-1.6-5.3-0.3c-1.3,1.3-0.1,4,0.3,5.3c-1.3,0.7-4,1.7-4,3.5s2.7,2.9,4,3.5
	c-0.4,1.4-1.6,4-0.3,5.3c1.3,1.3,4,0.1,5.3-0.3c0.7,1.3,1.7,4,3.5,4s2.9-2.7,3.5-4c1.4,0.4,4,1.6,5.3,0.3c1.3-1.3,0.1-4-0.3-5.3
	C300.2,477.6,302.9,476.6,302.9,474.8z M293.8,476.2c-0.4,0.2-0.8,0.5-1.1,0.8c-0.3,0.3-0.6,0.7-0.8,1.1c-0.4-0.1-0.9-0.2-1.4-0.2
	s-1,0.1-1.4,0.2c-0.2-0.4-0.5-0.8-0.8-1.1c-0.3-0.3-0.7-0.6-1.1-0.8c0.1-0.4,0.2-0.9,0.2-1.4s-0.1-1-0.2-1.4
	c0.4-0.2,0.8-0.5,1.1-0.8s0.6-0.7,0.8-1.1c0.4,0.1,0.9,0.2,1.4,0.2s1-0.1,1.4-0.2c0.2,0.4,0.5,0.8,0.8,1.1s0.7,0.6,1.1,0.8
	c-0.1,0.4-0.2,0.9-0.2,1.4S293.6,475.7,293.8,476.2z"/>
<circle style="fill:#EB9783;" cx="290.4" cy="474.8" r="5.4"/>
<path style="fill:#F4DECE;" d="M177.3,432.8c0-1.8-2.7-2.9-4-3.5c0.4-1.4,1.6-4,0.3-5.3s-4-0.1-5.3,0.3c-0.7-1.3-1.7-4-3.5-4
	s-2.9,2.7-3.5,4c-1.4-0.4-4-1.6-5.3-0.3c-1.3,1.3-0.1,4,0.3,5.3c-1.3,0.7-4,1.7-4,3.5s2.7,2.9,4,3.5c-0.4,1.4-1.6,4-0.3,5.3
	s4,0.1,5.3-0.3c0.7,1.3,1.7,4,3.5,4s2.9-2.7,3.5-4c1.4,0.4,4,1.6,5.3,0.3c1.3-1.3,0.1-4-0.3-5.3
	C174.6,435.7,177.3,434.6,177.3,432.8z M168.2,434.2c-0.4,0.2-0.8,0.5-1.1,0.8s-0.6,0.7-0.8,1.1c-0.4-0.1-0.9-0.2-1.4-0.2
	s-1,0.1-1.4,0.2c-0.2-0.4-0.5-0.8-0.8-1.1c-0.3-0.3-0.7-0.6-1.1-0.8c0.1-0.4,0.2-0.9,0.2-1.4s-0.1-1-0.2-1.4
	c0.4-0.2,0.8-0.5,1.1-0.8s0.6-0.7,0.8-1.1c0.4,0.1,0.9,0.2,1.4,0.2s1-0.1,1.4-0.2c0.2,0.4,0.5,0.8,0.8,1.1c0.3,0.3,0.7,0.6,1.1,0.8
	c-0.1,0.4-0.2,0.9-0.2,1.4S168.1,433.8,168.2,434.2z"/>
<circle style="fill:#EB9783;" cx="164.8" cy="432.8" r="5.4"/>
<path style="fill:#F4DECE;" d="M135.4,390.9c0-1.8-2.7-2.9-4-3.5c0.4-1.4,1.6-4,0.3-5.3s-4-0.1-5.3,0.3c-0.7-1.3-1.7-4-3.5-4
	s-2.9,2.7-3.5,4c-1.4-0.4-4-1.6-5.3-0.3c-1.3,1.3-0.1,4,0.3,5.3c-1.3,0.7-4,1.7-4,3.5s2.7,2.9,4,3.5c-0.4,1.4-1.6,4-0.3,5.3
	c1.3,1.3,4,0.1,5.3-0.3c0.7,1.3,1.7,4,3.5,4s2.9-2.7,3.5-4c1.4,0.4,4,1.6,5.3,0.3c1.3-1.3,0.1-4-0.3-5.3
	C132.7,393.8,135.4,392.7,135.4,390.9z M126.3,392.3c-0.4,0.2-0.8,0.5-1.1,0.8s-0.6,0.7-0.8,1.1c-0.4-0.1-0.9-0.2-1.4-0.2
	s-1,0.1-1.4,0.2c-0.2-0.4-0.5-0.8-0.8-1.1s-0.7-0.6-1.1-0.8c0.1-0.4,0.2-0.9,0.2-1.4s-0.1-1-0.2-1.4c0.4-0.2,0.8-0.5,1.1-0.8
	s0.6-0.7,0.8-1.1c0.4,0.1,0.9,0.2,1.4,0.2s1-0.1,1.4-0.2c0.2,0.4,0.5,0.8,0.8,1.1c0.3,0.3,0.7,0.6,1.1,0.8c-0.1,0.4-0.2,0.9-0.2,1.4
	C126.1,391.4,126.2,391.9,126.3,392.3z"/>
<circle style="fill:#EB9783;" cx="122.9" cy="390.9" r="5.4"/>
<path style="fill:#F4DECE;" d="M272.8,432.8c0-1.8-2.7-2.9-4-3.5c0.4-1.4,1.6-4,0.3-5.3c-1.3-1.3-4-0.1-5.3,0.3
	c-0.7-1.3-1.7-4-3.5-4s-2.9,2.7-3.5,4c-1.4-0.4-4-1.6-5.3-0.3c-1.3,1.3-0.1,4,0.3,5.3c-1.3,0.7-4,1.7-4,3.5s2.7,2.9,4,3.5
	c-0.4,1.4-1.6,4-0.3,5.3c1.3,1.3,4,0.1,5.3-0.3c0.7,1.3,1.7,4,3.5,4s2.9-2.7,3.5-4c1.4,0.4,4,1.6,5.3,0.3c1.3-1.3,0.1-4-0.3-5.3
	C270.1,435.7,272.8,434.6,272.8,432.8z M263.7,434.2c-0.4,0.2-0.8,0.5-1.1,0.8c-0.3,0.3-0.6,0.7-0.8,1.1c-0.4-0.1-0.9-0.2-1.4-0.2
	s-1,0.1-1.4,0.2c-0.2-0.4-0.5-0.8-0.8-1.1c-0.3-0.3-0.7-0.6-1.1-0.8c0.1-0.4,0.2-0.9,0.2-1.4s-0.1-1-0.2-1.4
	c0.4-0.2,0.8-0.5,1.1-0.8c0.3-0.3,0.6-0.7,0.8-1.1c0.4,0.1,0.9,0.2,1.4,0.2s1-0.1,1.4-0.2c0.2,0.4,0.5,0.8,0.8,1.1
	c0.3,0.3,0.7,0.6,1.1,0.8c-0.1,0.4-0.2,0.9-0.2,1.4S263.5,433.8,263.7,434.2z"/>
<circle style="fill:#EB9783;" cx="260.3" cy="432.8" r="5.4"/>
<path style="fill:#F4DECE;" d="M219.3,390.9c0-1.8-2.7-2.9-4-3.5c0.4-1.4,1.6-4,0.3-5.3s-4-0.1-5.3,0.3c-0.7-1.3-1.7-4-3.5-4
	s-2.9,2.7-3.5,4c-1.4-0.4-4-1.6-5.3-0.3c-1.3,1.3-0.1,4,0.3,5.3c-1.3,0.7-4,1.7-4,3.5s2.7,2.9,4,3.5c-0.4,1.4-1.6,4-0.3,5.3
	s4,0.1,5.3-0.3c0.7,1.3,1.7,4,3.5,4s2.9-2.7,3.5-4c1.4,0.4,4,1.6,5.3,0.3c1.3-1.3,0.1-4-0.3-5.3
	C216.5,393.8,219.3,392.7,219.3,390.9z M210.1,392.3c-0.4,0.2-0.8,0.5-1.1,0.8s-0.6,0.7-0.8,1.1c-0.4-0.1-0.9-0.2-1.4-0.2
	s-1,0.1-1.4,0.2c-0.2-0.4-0.5-0.8-0.8-1.1c-0.3-0.3-0.7-0.6-1.1-0.8c0.1-0.4,0.2-0.9,0.2-1.4s-0.1-1-0.2-1.4
	c0.4-0.2,0.8-0.5,1.1-0.8s0.6-0.7,0.8-1.1c0.4,0.1,0.9,0.2,1.4,0.2s1-0.1,1.4-0.2c0.2,0.4,0.5,0.8,0.8,1.1c0.3,0.3,0.7,0.6,1.1,0.8
	c-0.1,0.4-0.2,0.9-0.2,1.4C209.9,391.4,210,391.9,210.1,392.3z"/>
<circle style="fill:#EB9783;" cx="206.8" cy="390.9" r="5.4"/>
<path style="fill:#F4DECE;" d="M230.9,474.8c0-1.8-2.7-2.9-4-3.5c0.4-1.4,1.6-4,0.3-5.3s-4-0.1-5.3,0.3c-0.7-1.3-1.7-4-3.5-4
	s-2.9,2.7-3.5,4c-1.4-0.4-4-1.6-5.3-0.3c-1.3,1.3-0.1,4,0.3,5.3c-1.3,0.7-4,1.7-4,3.5s2.7,2.9,4,3.5c-0.4,1.4-1.6,4-0.3,5.3
	s4,0.1,5.3-0.3c0.7,1.3,1.7,4,3.5,4s2.9-2.7,3.5-4c1.4,0.4,4,1.6,5.3,0.3c1.3-1.3,0.1-4-0.3-5.3
	C228.1,477.6,230.9,476.6,230.9,474.8z M221.7,476.2c-0.4,0.2-0.8,0.5-1.1,0.8s-0.6,0.7-0.8,1.1c-0.4-0.1-0.9-0.2-1.4-0.2
	s-1,0.1-1.4,0.2c-0.2-0.4-0.5-0.8-0.8-1.1c-0.3-0.3-0.7-0.6-1.1-0.8c0.1-0.4,0.2-0.9,0.2-1.4s-0.1-1-0.2-1.4
	c0.4-0.2,0.8-0.5,1.1-0.8s0.6-0.7,0.8-1.1c0.4,0.1,0.9,0.2,1.4,0.2s1-0.1,1.4-0.2c0.2,0.4,0.5,0.8,0.8,1.1s0.7,0.6,1.1,0.8
	c-0.1,0.4-0.2,0.9-0.2,1.4C221.5,475.3,221.6,475.7,221.7,476.2z"/>
<circle style="fill:#EB9783;" cx="218.4" cy="474.8" r="5.4"/>
<g>
</g>
<g>
</g>
<g>
</g>
<g>
</g>
<g>
</g>
<g>
</g>
<g>
</g>
<g>
</g>
<g>
</g>
<g>
</g>
<g>
</g>
<g>
</g>
<g>
</g>
<g>
</g>
<g>
</g>
</svg>
