<?xml version="1.0" encoding="iso-8859-1"?>
<!-- Generator: Adobe Illustrator 19.0.0, SVG Export Plug-In . SVG Version: 6.00 Build 0)  -->
<svg version="1.1" id="Layer_1" xmlns="http://www.w3.org/2000/svg" xmlns:xlink="http://www.w3.org/1999/xlink" x="0px" y="0px"
	 viewBox="0 0 496.2 496.2" style="enable-background:new 0 0 496.2 496.2;" xml:space="preserve">
<path style="fill:#A3D5E0;" d="M248.1,0C111.1,0,0,111.1,0,248.1s111.1,248.1,248.1,248.1s248.1-111.1,248.1-248.1S385.1,0,248.1,0z
	"/>
<g>
	<path style="fill:#A07252;" d="M418.5,382.8c-8.5-27.3-81.2-49.3-170.8-49.3s-161.5,22-170,49.3c-2.6,8.5-5.5,22.2-8.3,37.4
		c45.1,46.9,108.5,76,178.7,76s133.6-29.2,178.7-76C424.1,405,421.2,391.2,418.5,382.8z"/>
	<path style="fill:#A07252;" d="M304.9,269.8H191.3c17.7,46.3,1.4,68.3,1.4,68.3h110.7C303.5,338,287.2,316.1,304.9,269.8z"/>
	<path style="fill:#A07252;" d="M247.7,333.4c-18.7,0-37.1,1-53.8,2.7c1.3,21,10.7,44.8,54.3,44.8c43.5,0,52.9-23.8,54.1-44.7
		C285.3,334.4,266.6,333.4,247.7,333.4z"/>
</g>
<path style="fill:#B27E5B;" d="M248.1,61.6c-48.7,0-88.3,21.2-88.3,113.6c0,31.3,6.2,68.2,15.5,87.1c20.4,41.6,55.7,56.1,72.8,56.1
	s52.4-14.5,72.8-56.1c9.3-18.9,15.5-55.8,15.5-87.1C336.4,82.8,296.8,61.6,248.1,61.6z"/>
<path style="fill:#332016;" d="M281.9,178.4c-9.9-0.2-17.1,11-17.1,11s3.4,3.5,17.6,3.5c14.4,0,19.4-5.5,19.4-5.5
	S293.3,178.6,281.9,178.4z"/>
<path style="fill:#EADAD0;" d="M281.9,178.4c-9.9-0.2-17.1,11-17.1,11s7.7,2.2,17.6,1.7c11.2-0.6,19.4-3.7,19.4-3.7
	S293.3,178.6,281.9,178.4z"/>
<circle style="fill:#2D170F;" cx="283" cy="184.9" r="7.4"/>
<path style="fill:#9E6E4D;" d="M290,177.5c-1.9-0.4-5.9-0.5-8.3-0.5c-9.9,0.3-16.9,12.3-16.9,12.3l0.9,0.2c3.8-3,12.7-10.3,19-10.2
	c11.5,0.3,17.2,8,17.2,8S300.7,179.5,290,177.5z"/>
<g>
	<path style="fill:#191919;" d="M288.4,177.6c-9.9-0.2-23.7,11.7-23.7,11.7l0.9,0.2c3.8-3,12.7-10.3,19-10.2c9.4,0.3,17.2,8,17.2,8
		S299.9,177.9,288.4,177.6z"/>
	<path style="fill:#191919;" d="M282.4,191c-10,0.5-17.6-1.7-17.6-1.7s3.4,3.5,17.6,3.5c14.4,0,19.4-5.5,19.4-5.5
		S293.6,190.4,282.4,191z"/>
</g>
<path style="fill:#332016;" d="M214.3,178.4c-11.5,0.3-19.9,9-19.9,9s5,5.5,19.4,5.5c14.2,0,17.6-3.5,17.6-3.5
	S224.3,178.1,214.3,178.4z"/>
<path style="fill:#EADAD0;" d="M214.3,178.4c-11.5,0.3-19.9,9-19.9,9s8.2,3.1,19.4,3.7c10,0.5,17.6-1.7,17.6-1.7
	S224.3,178.1,214.3,178.4z"/>
<circle style="fill:#2D170F;" cx="213.2" cy="184.9" r="7.4"/>
<path style="fill:#9E6E4D;" d="M214.5,177c-2.4-0.1-6.4,0.1-8.3,0.5c-10.7,2-11.8,9.9-11.8,9.9s5.7-7.7,17.2-8
	c6.2-0.1,15.2,7.2,19,10.2l0.9-0.2C231.5,189.3,224.4,177.3,214.5,177z"/>
<g>
	<path style="fill:#191919;" d="M207.8,177.6c-11.5,0.3-13.3,9.7-13.3,9.7s7.7-7.7,17.2-8c6.2-0.2,15.2,7.2,19,10.2l0.9-0.2
		C231.5,189.3,217.7,177.4,207.8,177.6z"/>
	<path style="fill:#191919;" d="M213.8,191c-11.2-0.6-19.4-3.7-19.4-3.7s5,5.5,19.4,5.5c14.2,0,17.6-3.5,17.6-3.5
		S223.8,191.5,213.8,191z"/>
</g>
<g>
	<path style="fill:#472B14;" d="M312.2,170.1c-7.5-7.1-20.9-8.2-28.2-8.2c-1.2,0-2.5,0-3.7,0.1c-0.4,0-1.1,1-1.1,1s-0.5-0.9-0.7-0.9
		c-5.8,0.4-10.6,1.4-13,2.3l-0.4,0.1c-2.8,1-6.3,2.3-4.9,6.7c0.7,2.3,2.3,3.6,4.3,3.6c0.4,0,0.9-0.1,1.4-0.2
		c0.7-0.2,1.4-0.5,2.2-0.8c0.5-0.2,0.9-0.4,1.3-0.5c0.5-0.2,1.1-0.4,1.6-0.6c0.7-0.2,2.1-2.5,2.1-2.5s1.6,1.6,2.4,1.4
		c3.4-0.7,7-1,10.8-1c10.3,0,18.6,2.4,20.8,3.3c1.5,0.6,2.7,0.9,3.6,0.9c1.7,0,2.3-1.1,2.5-1.5C313.5,172.2,313.2,171,312.2,170.1z"
		/>
	<path style="fill:#472B14;" d="M231.2,164.5l-0.4-0.1c-1.2-0.5-3.1-0.9-5.3-1.3c-0.8-0.1-2.7,1.3-2.7,1.3s-0.7-1.8-1.1-1.8
		c-2.9-0.3-6.1-0.6-9.6-0.6c-7.3,0-20.7,1.1-28.2,8.2c-1,0.9-1.4,2.1-0.9,3.2c0.2,0.5,0.8,1.5,2.5,1.5c0.9,0,2.1-0.3,3.6-0.9
		c2.1-0.8,10.5-3.3,20.8-3.3c6.3,0,12,0.9,16.9,2.7c0.4,0.1,0.9,0.3,1.3,0.5c0.8,0.3,1.6,0.7,2.2,0.8c0.5,0.1,1,0.2,1.4,0.2
		c2.1,0,3.7-1.3,4.4-3.6C237.5,166.8,234,165.5,231.2,164.5z"/>
</g>
<path style="fill:#9E6E4D;" d="M259.8,262.1c-3.3-0.4-11.7,2.5-11.7,2.5s-8.5-2.9-11.8-2.5c-5.4,0.7-13.4,7.6-13.4,9
	c0,2.2,11.3,5.2,25.2,5.2s25.2-3,25.2-5.2C273.3,271.1,265.2,262.8,259.8,262.1z"/>
<path style="fill:#896045;" d="M248.1,267.3c-14.9,0-25.2,3.8-25.2,3.8c0,2.2,11.3,5.2,25.2,5.2s25.2-3,25.2-5.2
	C273.3,271.1,263,267.3,248.1,267.3z"/>
<g>
	<path style="fill:#876249;" d="M257.6,204.2c0-11.4-3.8-14.4-3.8-14.4c2.2,8.3,2,15.2,2.3,21.7c0.4,9.3,4.2,14.6,4.2,14.6
		C258.7,222.2,257.6,215.6,257.6,204.2z"/>
	<path style="fill:#876249;" d="M233.9,235.3c0,0-6.5,12.7,5.1,11.5C238.9,246.9,231.3,244.5,233.9,235.3z"/>
	<path style="fill:#876249;" d="M263.6,235.3c2.5,9.1-5.1,11.5-5.1,11.5C270.1,248.7,263.6,235.3,263.6,235.3z"/>
</g>
<g>
	<path style="fill:#B27E5B;" d="M161.4,178c-8.4,1.4-14.9,5.1-10.1,32.9s10.7,29.1,19.1,27.7L161.4,178z"/>
	<path style="fill:#B27E5B;" d="M334.9,178l-9,60.6c8.4,1.4,14.3,0.1,19.1-27.7C349.7,183.1,343.3,179.5,334.9,178z"/>
</g>
<path style="fill:#191919;" d="M275.1,25.5v1.8c0,0.6-0.1,1.3-0.1,2c-0.1,1.3-0.4,2.8-0.8,4.2c-0.4,1.5-1.1,3.2-2.1,4.7
	c-0.5,0.8-1.1,1.5-1.8,2.2c-0.3,0.3-0.7,0.7-1.1,1l-0.3,0.2l-0.3,0.2l-0.1,0.1l-0.3,0.2c-1.5,1.1-2.8,1.6-3.9,2.1
	c-1.2,0.5-2.2,0.8-3.2,1.2c-1.9,0.7-3.4,1.2-4.9,2l-0.6,0.3c-0.2,0.1-0.3,0.2-0.5,0.3c-0.3,0.2-0.7,0.4-1,0.6l-0.3,0.2
	c0,0-0.1,0.1-0.2,0.1l-0.6,0.5c-0.1,0.1-0.7,0.6-0.7,0.6c-0.1,0.1-0.2,0.2-0.3,0.3l-0.1,0.1l0,0l0,0c0,0,0.1-0.2,0.1-0.1l0,0
	l-0.2,0.3c-0.1,0.2-0.2,0.2-0.3,0.4c-0.1,0.1-0.2,0.3-0.3,0.4c-0.4,0.6-0.8,1.3-1.1,2c-0.2,0.4-0.3,0.8-0.5,1.2l-0.4,1.2l-0.4,1.4
	c-0.1,0.4-0.2,0.9-0.3,1.3c-0.4,1.8-0.6,3.7-0.7,5.6c-0.1,0.9-0.1,1.9-0.1,2.9v0.3v0.4v0.7V69l0.1,0.8c0.1,1,0.1,1.3,0.3,1.8
	c0.1,0.2,0.2,0.5,0.4,0.7c0.1,0.2,0.3,0.4,0.5,0.6c0.7,0.7,1.9,1.2,3,1.1s2.3-0.7,3-1.7s1-2.4,0.8-3.7c-0.1-0.3-0.2-0.6-0.3-0.9
	c0-0.1-0.1-0.2-0.1-0.2l-0.1-0.1l-0.2-0.3c-0.2-0.3-0.2-0.4-0.3-0.6l-0.2-0.4c-0.2-0.6-0.4-1-0.6-1.6l-0.3-0.8l-0.3-0.8
	c-0.6-2.1-1.1-4.2-1.4-6.5V56v-0.2v-0.2c0-0.2,0-0.5,0-0.8c0-0.6,0-1.2,0-1.8c0.1-1.2,0.3-2.4,0.8-3.6l-0.1,0.4
	c0-0.1,0.1-0.3,0.1-0.4v-0.1c0,0,0-0.1,0,0c0,0,0,0.1-0.1,0.2c0,0.1-0.1,0.3-0.1,0.4V50v0.2c0,0.2,0.1,0.5,0.4,0.8
	c0.2,0.3,0.7,0.5,1,0.6s0.6,0,0.6,0h0.1c0.1,0,0.1,0,0.2-0.1s0.3-0.1,0.4-0.2L253,49l0.6-0.8c0.3-0.3,0.4-0.5,0.7-0.8
	c0.5-0.5,1-1,1.5-1.5c0.3-0.3,0.5-0.4,0.8-0.6c0.3-0.2,0.5-0.4,0.8-0.6c0.5-0.4,1.1-0.8,1.6-1.1c2.2-1.4,4.3-2.6,6.1-4.3
	c0.9-0.8,1.6-1.7,2.2-2.8c0.3-0.5,0.5-1.1,0.7-1.7c0.2-0.6,0.3-1.2,0.4-1.8c0.4-2.4,0-5-0.5-7.4L275.1,25.5z M268.1,25.8
	c0.8,2.4,1.4,4.9,1.4,7.5c0,0.7-0.1,1.3-0.2,2c-0.1,0.6-0.3,1.3-0.6,1.9c-0.5,1.2-1.3,2.4-2.1,3.4c-1.8,2-3.9,3.5-5.8,5.1
	c-0.5,0.4-0.9,0.8-1.4,1.2c-0.2,0.2-0.4,0.4-0.6,0.6c-0.2,0.2-0.5,0.5-0.6,0.7c-0.8,0.9-1.4,1.7-2.1,2.8l-2.3-2.3
	c0.1-0.1,0.2-0.2,0.4-0.2c0.1,0,0.1,0,0.2-0.1h0.1c0,0,0.3-0.1,0.6,0c0.3,0,0.7,0.3,1,0.6c0.2,0.3,0.3,0.6,0.4,0.8v0.1V50v0.1
	c0,0.2,0,0.3-0.1,0.4c0,0.1-0.1,0.2-0.1,0.2l0,0v-0.1c0,0,0.1-0.2,0.1-0.4l-0.1,0.4c-0.2,0.7-0.3,1.5-0.3,2.5c0,0.4,0.1,0.9,0.1,1.4
	c0,0.2,0.1,0.4,0.1,0.7v0.2v0.1l0.1,0.3c0.4,1.8,1.1,3.7,1.8,5.5l0.3,0.7l0.3,0.7c0.2,0.4,0.4,0.9,0.6,1.3l0.2,0.3
	c0,0.1,0.1,0.2,0.1,0.1l0,0l0,0c0,0.1-0.1-0.1,0-0.1v0.1l0.2,0.2c0.1,0.1,0.2,0.3,0.3,0.4c0.4,0.6,0.7,1.2,0.9,1.9
	c1,2.7,0.7,5.8-0.7,8.3c-1.4,2.6-4,4.5-7,5.1s-6.2,0-8.7-1.9c-0.6-0.5-1.2-1-1.7-1.6s-0.9-1.2-1.3-1.9c-0.4-0.7-0.7-1.4-0.9-2.2
	l-0.2-0.7l-0.1-0.4l-0.2-0.9l-0.2-0.8c-0.1-0.3-0.1-0.6-0.2-0.9l-0.1-0.9v-0.4v-0.5c-0.1-1.1-0.2-2.2-0.3-3.3
	c-0.1-2.2-0.1-4.5,0.1-6.8c0-0.6,0.1-1.1,0.2-1.8l0.3-1.7l0.2-1l0.2-0.9c0.1-0.6,0.3-1.2,0.5-1.8c0.4-1.2,0.8-2.4,1.4-3.7
	c0.1-0.3,0.3-0.6,0.5-0.9c0.1-0.3,0.4-0.7,0.6-0.9l0.2-0.3l0.4-0.5c0.2-0.3,0.4-0.6,0.6-0.9c0.7-0.8,0.8-1,1.5-1.6l0.6-0.6l0.4-0.4
	l0.3-0.3c0.5-0.4,1-0.9,1.5-1.3c0.5-0.4,1.2-0.9,1.5-1.1c1-0.7,2.1-1.4,3.2-2s2.1-1.1,3.1-1.5c1-0.5,1.8-0.9,2.5-1.3
	c0.7-0.4,1.3-0.8,1.5-1l0.3-0.3l0.1-0.1l0,0c-0.1,0,0.2-0.1-0.1,0.1l0,0l0,0v-0.1l0.1-0.3c0.1-0.2,0.2-0.5,0.2-1
	c0.1-0.5,0.1-1.2,0.1-1.9c0-0.4,0-0.7-0.1-1.1l-0.1-1.3c-0.2-1.9,1.2-3.5,3.1-3.7c1.6-0.1,3,0.8,3.5,2.3L268.1,25.8z"/>
<g>
</g>
<g>
</g>
<g>
</g>
<g>
</g>
<g>
</g>
<g>
</g>
<g>
</g>
<g>
</g>
<g>
</g>
<g>
</g>
<g>
</g>
<g>
</g>
<g>
</g>
<g>
</g>
<g>
</g>
</svg>
