<?xml version="1.0" encoding="iso-8859-1"?>
<!-- Generator: Adobe Illustrator 19.0.0, SVG Export Plug-In . SVG Version: 6.00 Build 0)  -->
<svg version="1.1" id="Layer_1" xmlns="http://www.w3.org/2000/svg" xmlns:xlink="http://www.w3.org/1999/xlink" x="0px" y="0px"
	 viewBox="0 0 496.2 496.2" style="enable-background:new 0 0 496.2 496.2;" xml:space="preserve">
<path style="fill:#48A1AF;" d="M248.1,0C111.1,0,0,111.1,0,248.1s111.1,248.1,248.1,248.1s248.1-111.1,248.1-248.1S385.1,0,248.1,0z
	"/>
<path d="M248.1,115.6c-92.6,0-108.7,56.1-108.7,56.1s31.5,32,108.7,32s108.6-31.8,108.6-31.8S340.7,115.6,248.1,115.6z"/>
<rect x="168.3" y="153.1" style="fill:#2B1407;" width="160.5" height="255"/>
<path style="fill:#47200D;" d="M169.3,425.7c0,0,0.8-0.3,2.1-1c-0.1,0-0.1,0-0.1,0L169.3,425.7z M297.9,94.8l-107.5-5.7
	c-31.5,31.7-45.4,69.2-49.3,105.8c-1.9,17.5,18.2,41.8,20,58.2c1.9,17.2-17.5,22-19,49c-1.5,26.6,15.9,47.1,21.5,56
	c29.9,48.1,13.9,63,7.8,66.6c3.1-0.6,69.1-14.9,43.6-76.1c-2.6-6.2-9.2-26.5-15.8-37.7c-7.2-12.2-28.4-37-26-58.8
	C179.2,197,238.2,138.1,297.9,94.8z"/>
<rect x="205.1" y="324.9" style="fill:#D2D5D8;" width="85.8" height="31.5"/>
<g>
	<path style="fill:#E2A379;" d="M287,282.1h-77.8c12.1,36.6,1,53.3,1,53.3l26.9,6.1h22l26.9-6.1C286,335.4,274.9,318.7,287,282.1z"
		/>
	<path style="fill:#E2A379;" d="M247.9,317l-37.7,18.4c0,0,16.8,28.1,37.6,28.1s38.2-28.1,38.2-28.1L247.9,317z"/>
</g>
<path style="fill:#F4B382;" d="M248.1,92.6c-41.5,0-75.1,5.7-75.1,98.1c0,31.3,5.3,46.4,13.2,65.3c17.4,41.6,47.4,56.1,61.9,56.1
	s44.6-14.5,61.9-56.1c7.9-18.9,13.2-34,13.2-65.3C323.2,98.3,289.6,92.6,248.1,92.6z"/>
<path style="fill:#47200D;" d="M248.1,77.1L248.1,77.1c-48.7,0-88.3,5.7-88.3,98.1c0,0,88.2-22.6,88.2-56.2
	C248,118.1,248.1,77.1,248.1,77.1L248.1,77.1z"/>
<path style="fill:#CE9163;" d="M236.2,244.7c-0.4-1.5-0.5-3-0.8-4.7c-0.7,0.8-1,1.7-1.2,2.6c-0.2,0.9-0.2,1.8,0,2.6s0.7,1.7,1.4,2.3
	c0.7,0.7,1.7,1.1,2.8,1.3C237.2,247.4,236.6,246.2,236.2,244.7z"/>
<g>
	<path style="fill:#AD7550;" d="M244.7,244.8c-0.3-0.6-0.8-1.1-1.4-1.4c-0.6-0.3-1.3-0.4-2.2-0.2c-0.8,0.1-1.8,0.6-2.6,1.3
		c1.5-0.1,2.7,0.1,3.7,0.6s1.9,1.2,3,1.9C245.2,246.1,245,245.4,244.7,244.8z"/>
	<path style="fill:#AD7550;" d="M255.4,243.2c-0.8-0.2-1.6,0-2.2,0.2c-0.6,0.3-1.1,0.8-1.4,1.4c-0.3,0.6-0.5,1.3-0.4,2.2
		c1.1-0.7,1.9-1.4,3-1.9c1-0.5,2.1-0.7,3.7-0.6C257.2,243.8,256.3,243.4,255.4,243.2z"/>
</g>
<g>
	<path style="fill:#CE9163;" d="M262,242.6c-0.2-0.9-0.6-1.8-1.2-2.6c-0.3,1.7-0.4,3.2-0.8,4.7s-1,2.7-2.2,4.1
		c1.1-0.2,2.1-0.7,2.8-1.3c0.7-0.7,1.1-1.5,1.4-2.3C262.2,244.3,262.2,243.4,262,242.6z"/>
	<path style="fill:#CE9163;" d="M256.1,213.7c0.1-2.7,0.3-5.3,0.7-7.9c0.4-2.6,1.1-5.2,2.1-7.8c-1.7,2.2-2.9,4.7-3.7,7.4
		c-0.8,2.7-1.1,5.5-1.2,8.2c-0.1,2.8,0.2,5.5,0.7,8.3c0.5,2.7,1.2,5.4,2.4,7.9C256.5,224.4,256,219,256.1,213.7z"/>
	<path style="fill:#CE9163;" d="M240.1,211.4c-0.1-0.9-0.2-1.9-0.5-2.8c-0.2-0.9-0.6-1.8-1.1-2.6c-0.1,1-0.1,1.9-0.1,2.8
		c0,0.9,0.1,1.8,0.1,2.7c0.1,0.9,0.1,1.8,0.3,2.7c0.1,0.9,0.3,1.8,0.5,2.8c0.4-0.9,0.5-1.8,0.6-2.8
		C240.2,213.3,240.2,212.4,240.1,211.4z"/>
</g>
<path style="fill:#472B14;" d="M264.7,204.8c0,0.5,2.3,7.6,19.4,5.3c11.1-1.5,11.8-12.2,11.8-12.2
	C275.6,186.6,264.7,204.8,264.7,204.8z"/>
<path style="fill:#F7F0EB;" d="M264.7,204.8c0.1,1.1,1.1,1.5,2,1.8c24.5,8.5,28.2-7.4,28.2-7.4C275.1,191.7,264.7,204.8,264.7,204.8
	z"/>
<ellipse style="fill:#23110B;" cx="281.7" cy="201.5" rx="6.1" ry="6"/>
<path style="fill:#2B1407;" d="M295.3,196.1c-23.5-11.7-30.6,8.7-30.6,8.7s10-12.5,28.9-6.1c0.4,0,0.9,0.2,1.3,0.4
	c4.8,2.6,5.3-1.4,5.3-1.4C298.2,197.7,295.3,196.1,295.3,196.1z"/>
<path style="fill:#472B14;" d="M200.1,197.9c0,0,0.7,10.7,11.8,12.2c17.1,2.3,19.4-4.8,19.4-5.3
	C231.3,204.8,220.4,186.6,200.1,197.9z"/>
<path style="fill:#F7F0EB;" d="M201.1,199.2c0,0,3.7,15.9,28.2,7.4c0.9-0.3,1.9-0.8,2-1.8C231.3,204.8,220.8,191.7,201.1,199.2z"/>
<ellipse style="fill:#23110B;" cx="214.3" cy="201.5" rx="6.1" ry="6"/>
<g>
	<path style="fill:#2B1407;" d="M200.7,196.1c0,0-3,1.6-4.8,1.6c0,0,0.4,4,5.3,1.4c0.4-0.2,0.8-0.3,1.3-0.4
		c18.9-6.4,28.9,6.1,28.9,6.1S224.2,184.3,200.7,196.1z"/>
	<path style="fill:#2B1407;" d="M226.8,180.5c-7.9-2.9-21.3-5.7-33.6,5.8c-1,0.9-2.7,2.4-2.9,3s1.7-0.3,6.4-2.2
		c4.4-1.8,9.4-7,27.1-0.6c1.2,0.4,2.7,1.2,3.7,1.4c0.9,0.2,3,0.5,3.9-2.4C232.3,182.4,230.2,181.8,226.8,180.5z"/>
</g>
<path style="fill:#E24444;" d="M258.5,257.8c-3-0.4-10.4,2.5-10.4,2.5s-7.6-2.9-10.6-2.5c-4.8,0.7-11.9,9-11.9,10.3
	c0,0,10.1,5.2,22.5,5.2s22.5-5.2,22.5-5.2S263.4,258.5,258.5,257.8z"/>
<path style="fill:#D33D3D;" d="M254.2,264.4c-2-0.1-4.5,1.7-6.1,1.7c-1.9,0-4.8-1.8-7-1.6c-13.1,0.8-15.5,3.6-15.5,3.6
	s10.1,9.1,22.5,9.1s22.5-9.1,22.5-9.1S267.9,265.2,254.2,264.4z"/>
<path style="fill:#E2A379;" d="M285.9,335.4c0,0-8.9,17.3-38.1,17.3s-37.5-17.3-37.5-17.3s-7,54.7,37.9,54.7
	S285.9,335.4,285.9,335.4z"/>
<g>
	<path style="fill:#F4B382;" d="M171.5,178c-7.6,1.3-13.4,4.6-9.1,29.7c4.3,25.2,9.6,26.3,17.3,25L171.5,178z"/>
	<path style="fill:#F4B382;" d="M322.8,178l-8.1,54.8c7.6,1.3,13,0.1,17.3-25C336.2,182.6,330.4,179.3,322.8,178z"/>
</g>
<path style="fill:#47200D;" d="M174.8,181.4c-1-6.6,0.1-11.8,0.1-11.8l-15,5.6c0,0,9.3,1.2,12.6,11.9
	C172.4,187.1,176.1,189.8,174.8,181.4z"/>
<path style="fill:#E2A379;" d="M394.8,382.8c-7.3-27.3-69.9-49.3-147.1-49.3s-139.1,22.1-146.4,49.3c-3.3,12.2-7,35.2-10.1,57.5
	c42.7,34.9,97.4,55.9,156.9,55.9s114.1-21,156.9-55.9C401.8,417.9,398.1,394.9,394.8,382.8z"/>
<path style="fill:#9B6D31;" d="M394.8,382.8c-7.3-27.3-69.9-49.3-147.1-49.3s-139.1,22.1-146.4,49.3c-3.3,12.2-7,35.2-10.1,57.5
	c42.7,34.9,97.4,55.9,156.9,55.9s114.1-21,156.9-55.9C401.8,417.9,398.1,394.9,394.8,382.8z"/>
<g>
	<path style="fill:#F3FAFF;" d="M394.8,382.8c-4.2-15.6-26.4-29.5-59.1-38.5L355,472.1c18-8.6,34.7-19.3,50-31.7
		C401.8,417.9,398.1,394.9,394.8,382.8z"/>
	<path style="fill:#F3FAFF;" d="M101.4,382.8c-3.3,12.2-7,35.2-10.1,57.5c15,12.3,31.5,22.8,49.1,31.3l19.2-127.2
		C127.3,353.4,105.5,367.2,101.4,382.8z"/>
	<path style="fill:#F3FAFF;" d="M247.8,333.4c-15.9,0-31.2,0.9-45.5,2.7l45.8,91l45.8-90.9C279.4,334.4,263.9,333.4,247.8,333.4z"/>
	<path style="fill:#F3FAFF;" d="M205.1,324.9l-37,32.3l43.4,38.5c0.3,0.3,25.5-6.8,25.5-6.8L205.1,324.9z"/>
	<path style="fill:#F3FAFF;" d="M291,324.9l-32,63.9c0,0,25.2,7.1,25.5,6.8l43.4-38.5L291,324.9z"/>
</g>
<path style="fill:#47200D;" d="M335.5,253.1c1.8-16.4,21.9-40.7,20-58.2c-3.9-36.6-12.8-75.1-44.2-102.8c-8.2-7.2-18-15-63.3-15
	c0,0-33.1,18.8-26,44c4.3,15.3,20.7,15.3,34.5,26.6c37.6,30.6,63.2,70.5,67,104.4c2.4,21.8-18.8,46.5-26,58.8
	c-6.7,11.2-13.2,31.5-15.8,37.7c-26.2,62.7,43.5,76.7,43.5,76.7l2.1,0.4c0,0-30.1-9.9,5.7-67.6c5.6-8.9,23-29.4,21.5-56
	C353,275.1,333.6,270.3,335.5,253.1z"/>
<path style="fill:#353230;" d="M273.9,48.6c-9.5-2.6-17.7-3.8-26.7-3.8c-8.2,0-19,1.5-27.3,4c-21.9,0-58.6,56-58.6,56h173.6
	C334.9,104.9,291.5,48.6,273.9,48.6z"/>
<path style="fill:#282220;" d="M273.9,45.9c-9.3,0-17.7,6.3-26.7,6.3c-8.2,0-16.9-6.1-27.3-6.1c-21.9,0-58.6,56-58.6,56h173.6
	C334.9,102.1,291.5,45.9,273.9,45.9z"/>
<path style="fill:#141211;" d="M248.1,77.1c-92.6,0-168.3,29.8-168.3,29.8c0,4.5,59.6,65.3,59.6,64.9c0-1.1,35.2-38.1,108.7-38.1
	s108.6,38.4,108.6,38.4c0.2-0.5,59.7-60.7,59.7-65.1C416.4,106.9,340.7,77.1,248.1,77.1z"/>
<path style="fill:#E2A379;" d="M247.8,322.9c-28.2,0-37.4,12.4-37.4,12.4l37.7,76.8l37.8-76.8C285.9,335.3,275.9,322.9,247.8,322.9z
	"/>
<g>
</g>
<g>
</g>
<g>
</g>
<g>
</g>
<g>
</g>
<g>
</g>
<g>
</g>
<g>
</g>
<g>
</g>
<g>
</g>
<g>
</g>
<g>
</g>
<g>
</g>
<g>
</g>
<g>
</g>
</svg>
