<?xml version="1.0" encoding="iso-8859-1"?>
<!-- Generator: Adobe Illustrator 19.0.0, SVG Export Plug-In . SVG Version: 6.00 Build 0)  -->
<svg version="1.1" id="Layer_1" xmlns="http://www.w3.org/2000/svg" xmlns:xlink="http://www.w3.org/1999/xlink" x="0px" y="0px"
	 viewBox="0 0 496.2 496.2" style="enable-background:new 0 0 496.2 496.2;" xml:space="preserve">
<path style="fill:#48A1AF;" d="M248.1,0C111.1,0,0,111.1,0,248.1s111.1,248.1,248.1,248.1s248.1-111.1,248.1-248.1S385.1,0,248.1,0z
	"/>
<path style="fill:#AF6215;" d="M247.6,269.6c-63.2,0-89.5,30.9-89.5,30.9s0,36.7,0,40.5c0,20,40.3,36.2,90,36.2s90-16.2,90-36.2
	c0-3.7,0-40.5,0-40.5S310.8,269.6,247.6,269.6z"/>
<path style="fill:#E5BDA3;" d="M304.9,269.8H191.3c17.7,46.3,1.4,68.3,1.4,68.3h110.7C303.5,338,287.2,316.1,304.9,269.8z"/>
<path style="fill:#E2A379;" d="M247.7,333.4c-18.7,0-37.1,1-53.8,2.7c1.3,21,10.7,44.8,54.3,44.8c43.5,0,52.9-23.8,54.1-44.7
	C285.3,334.4,266.6,333.4,247.7,333.4z"/>
<path style="fill:#9B6D31;" d="M418.5,382.8c-8.5-27.3-81.2-49.3-170.8-49.3s-161.5,22-170,49.3c-2.6,8.5-5.5,22.2-8.3,37.4
	c45.1,46.9,108.5,76,178.7,76s133.6-29.2,178.7-76C424.1,405,421.2,391.2,418.5,382.8z"/>
<path style="fill:#AF6215;" d="M247.7,333.4c-33.1,0-63.8,3-89.7,8.2c0,0,33.6,25,89.6,25c56.2,0,90.3-25,90.3-25
	C311.8,336.4,280.9,333.4,247.7,333.4z"/>
<g>
	<path style="fill:#CC7B23;" d="M158.1,300.5c0,0,0,36.7,0,40.5c0,20,38.2,51.7,87.9,51.7v-61.6
		C182.7,331.1,158.1,300.5,158.1,300.5z"/>
	<path style="fill:#CC7B23;" d="M249.8,331.1v61.5c49.7,0,88.3-31.7,88.3-51.7c0-3.7,0-40.5,0-40.5S313,331.1,249.8,331.1z"/>
</g>
<g>
	<path style="fill:#F4C9AB;" d="M248.1,65.6c-48.7,0-88.3,21.2-88.3,113.6c0,31.3,6.2,55.8,15.5,74.7c20.4,41.6,55.7,61.6,72.8,61.6
		s52.4-20,72.8-61.6c9.3-18.9,15.5-43.4,15.5-74.7C336.4,86.8,296.8,65.6,248.1,65.6z"/>
	<path style="fill:#F4C9AB;" d="M161.4,178c-8.4,1.4-14.9,5.1-10.1,32.9s10.7,29.1,19.1,27.7L161.4,178z"/>
	<path style="fill:#F4C9AB;" d="M334.9,178l-9,60.6c8.4,1.4,14.3,0.1,19.1-27.7C349.7,183.1,343.3,179.5,334.9,178z"/>
</g>
<path style="fill:#2B1407;" d="M180.1,174.9l-14.6-34.1c-4.2,10.9-5.6,24.4-5.6,37.5c0,0,8.8-1.9,8.8,2.6l2.8,27.6l3.9-1.9
	C175,183.6,180.1,174.9,180.1,174.9z"/>
<g>
	<path style="fill:#634421;" d="M341,113.7c-12.5,0-13.5-6-13.5,42.4c0,119.4,10.1,134.1,22.6,134.1s22.6-85.7,22.6-134.1
		S353.5,113.7,341,113.7z"/>
	<path style="fill:#634421;" d="M153.7,113.7c-12.5,0-30.2-6-30.2,42.4s10.1,134.1,22.6,134.1s22.6-14,22.6-134.1
		C168.7,107.7,166.2,113.7,153.7,113.7z"/>
</g>
<path style="fill:#2B1407;" d="M330.8,140.8l-14.6,34.1c0,0,5.1,8.8,4.9,31.8l3.9,1.9l2.8-27.6c0-4.5,8.8-2.6,8.8-2.6
	C336.5,165.1,335.1,151.7,330.8,140.8z"/>
<g>
	<path style="fill:#634422;" d="M248.6,133.1c-78,0-99.1,62.5-99.1,62.5s24.1-48.5,98.6-48.5s98.6,48.5,98.6,48.5
		S326.6,133.1,248.6,133.1z"/>
	<polygon style="fill:#634422;" points="247.4,144.1 247.4,150.1 251.8,145.8 	"/>
	<polygon style="fill:#634422;" points="251.1,145.4 251.1,151.4 255.4,147.1 	"/>
	<polygon style="fill:#634422;" points="255.4,144.1 255.4,150.1 259.8,145.8 	"/>
	<polygon style="fill:#634422;" points="272.3,145.5 272.3,151.5 276.6,147.2 	"/>
	<polygon style="fill:#634422;" points="268.6,145.3 268.6,151.3 272.9,147 	"/>
	<polygon style="fill:#634422;" points="281.6,146.7 281.6,152.7 285.9,148.3 	"/>
	<polygon style="fill:#634422;" points="221.8,145.3 221.8,151.3 226.1,147 	"/>
	<polygon style="fill:#634422;" points="216.9,145.7 216.9,151.7 221.3,147.3 	"/>
	<polygon style="fill:#634422;" points="219.9,144.8 219.9,150.8 224.3,146.4 	"/>
</g>
<path style="fill:#724F25;" d="M134.5,85.7c0,9.2,15,109.9,15,109.9s24.1-53,98.6-53s98.6,53,98.6,53s15.1-99.9,15.1-109.9
	C361.8,17.2,134.5,17.7,134.5,85.7z"/>
<path style="fill:#C97565;" d="M258.8,260.8c-3.1-0.4-10.7,2.3-10.7,2.3s-7.8-2.7-10.9-2.3c-4.9,0.7-12.3,7-12.3,8.3
	c0,2,10.4,4.8,23.2,4.8c12.8,0,23.2-2.8,23.2-4.8C271.3,269,263.9,261.4,258.8,260.8z"/>
<path style="fill:#BA654F;" d="M248.1,267.3c-13.7,0-23.2,1.7-23.2,1.7c0,2,10.4,7.1,23.2,7.1c12.8,0,23.2-5.1,23.2-7.1
	C271.3,269,261.8,267.3,248.1,267.3z"/>
<g>
	<path style="fill:#CEAA97;" d="M254.1,201.7c1.2,11.1,2.9,18,4.6,22C258.7,223.7,252.8,190.4,254.1,201.7z"/>
	<path style="fill:#CEAA97;" d="M234.1,231.4c0,0-6.5,12.7,5.1,11.5C239.2,242.9,231.6,240.5,234.1,231.4z"/>
	<path style="fill:#CEAA97;" d="M262.1,231.4c2.5,9.1-5.1,11.5-5.1,11.5C268.6,244.8,262.1,231.4,262.1,231.4z"/>
</g>
<path style="fill:#2B1407;" d="M305.7,168.6c-7.4-6.4-19.1-6-25.4-5.1c-1.1,0.1-2.1,0.3-3.1,0.5c-0.3,0.1-0.9,1.1-0.9,1.1
	s-0.5-0.8-0.8-0.8c-5,1-9,2.5-11,3.7l-0.3,0.2c-2.3,1.3-5.1,3-3.4,7.4c0.9,2.2,2.4,3.4,4.2,3.2c0.4,0,0.8-0.2,1.2-0.3
	c0.5-0.2,1.2-0.7,1.8-1.1c0.4-0.2,0.7-0.5,1.1-0.7c0.4-0.3,0.9-0.5,1.3-0.7c0.6-0.3,1.5-2.8,1.5-2.8s1.6,1.4,2.3,1.2
	c2.8-1.1,5.9-1.8,9.2-2.2c8.9-1.1,16.4,0.4,18.3,1c1.4,0.4,2.4,0.6,3.2,0.5c1.5-0.2,1.9-1.3,2-1.8
	C307.2,170.6,306.7,169.4,305.7,168.6z"/>
<path style="fill:#EADAD0;" d="M281.5,181.4c-9.3-0.2-18.5,8.1-18.5,8.1s7.2,6.5,16.6,7.3c10.6,0.9,18.3-9.2,18.3-9.2
	S292.3,181.6,281.5,181.4z"/>
<circle style="fill:#2B1407;" cx="281.2" cy="188" r="7.5"/>
<path style="fill:#D3AF9B;" d="M279.5,194.3c-9.3-0.7-16.6-5.1-16.6-5.1s7.2,7.6,16.6,7.6c16.7,0,18.3-9.1,18.3-9.1
	S290.1,195.1,279.5,194.3z"/>
<path style="fill:#E0B9A0;" d="M281.5,179.8c-12.2,0-18.5,9.4-18.5,9.4s9.2-6.6,18.5-6.4c10.8,0.2,16.3,4.9,16.3,4.9
	S295.9,179.8,281.5,179.8z"/>
<path style="fill:#2B1407;" d="M231.9,168.2l-0.3-0.2c-2-1.2-6-2.7-11-3.7c-0.2,0-0.8,0.8-0.8,0.8s-0.5-1-0.9-1.1
	c-1-0.2-2.1-0.4-3.1-0.5c-6.3-0.8-17.9-1.2-25.4,5.1c-1,0.8-1.4,2-1.2,3.1c0.1,0.5,0.5,1.6,2,1.8c0.8,0.1,1.8-0.1,3.2-0.5
	c1.9-0.6,9.4-2.1,18.3-1c3.3,0.4,6.4,1.2,9.2,2.2c0.7,0.3,2.3-1.2,2.3-1.2s0.9,2.5,1.5,2.8c0.5,0.2,0.9,0.5,1.3,0.7
	c0.3,0.2,0.7,0.4,1.1,0.7c0.7,0.4,1.3,0.8,1.8,1.1c0.4,0.2,0.8,0.3,1.2,0.3c1.8,0.2,3.3-0.9,4.2-3.2
	C237,171.2,234.2,169.5,231.9,168.2z"/>
<path style="fill:#EADAD0;" d="M214.7,181.4c-10.8,0.2-16.3,6.2-16.3,6.2s7.7,10.1,18.3,9.2c9.3-0.8,16.6-7.3,16.6-7.3
	S224,181.2,214.7,181.4z"/>
<circle style="fill:#2B1407;" cx="215" cy="188" r="7.5"/>
<path style="fill:#D3AF9B;" d="M216.7,194.3c-10.6,0.8-18.3-6.6-18.3-6.6s1.6,9.1,18.3,9.1c9.4,0,16.6-7.6,16.6-7.6
	S226,193.7,216.7,194.3z"/>
<path style="fill:#CEAA97;" d="M253.1,239.9c-4.8,6.8-10.5,0-10.5,0s0.2,5.2,5.5,5.2C253.3,245.1,253.1,239.9,253.1,239.9z"/>
<path style="fill:#AF6215;" d="M228.9,352.1v143.3c6.4,0.5,12.8,0.7,19.3,0.7s12.9-0.3,19.2-0.7V352.1H228.9z"/>
<g>
	<path style="fill:#CC7B23;" d="M249.7,352.1v144.1c13.1-0.1,26-1.2,38.5-3.2V352.1H249.7z"/>
	<path style="fill:#CC7B23;" d="M207.4,352.1v140.7c12.5,2.1,25.4,3.2,38.5,3.3v-144H207.4z"/>
</g>
<g>
</g>
<g>
</g>
<g>
</g>
<g>
</g>
<g>
</g>
<g>
</g>
<g>
</g>
<g>
</g>
<g>
</g>
<g>
</g>
<g>
</g>
<g>
</g>
<g>
</g>
<g>
</g>
<g>
</g>
</svg>
