<?xml version="1.0" encoding="iso-8859-1"?>
<!-- Generator: Adobe Illustrator 19.0.0, SVG Export Plug-In . SVG Version: 6.00 Build 0)  -->
<svg version="1.1" id="Layer_1" xmlns="http://www.w3.org/2000/svg" xmlns:xlink="http://www.w3.org/1999/xlink" x="0px" y="0px"
	 viewBox="0 0 496.2 496.2" style="enable-background:new 0 0 496.2 496.2;" xml:space="preserve">
<path style="fill:#A3D5E0;" d="M248.1,0C111.1,0,0,111.1,0,248.1s111.1,248.1,248.1,248.1s248.1-111.1,248.1-248.1S385.1,0,248.1,0z
	"/>
<path style="fill:#48A1AF;" d="M394.8,382.8c-7.3-27.3-69.9-49.3-147.1-49.3s-139.1,22.1-146.4,49.3c-3.3,12.2-7,35.2-10.1,57.5
	c42.7,34.9,97.4,55.9,156.9,55.9s114.1-21,156.9-55.9C401.8,417.9,398.1,394.9,394.8,382.8z"/>
<g>
	<path style="fill:#E2A379;" d="M286,335.3c0,0-11.2-16.5,1-53.1h-77.8c12.1,36.6,1,53.1,1,53.1l-1.9,11.7l28.8,13.7h22l29.5-14.1
		L286,335.3z"/>
	<ellipse style="fill:#E2A379;" cx="248.1" cy="349.8" rx="46" ry="25.7"/>
</g>
<path style="fill:#C6A414;" d="M316.7,251.6c0,0-3-4.4-6.1-1.8c-3.4,2.9-5.7,19.4,14.8,29.9l6.1-9.4L316.7,251.6z"/>
<path style="fill:#D8B421;" d="M338.2,252.3c-3.2-3.4-7.3,1.2-7.3,1.2l-15.5,18.9l5.8,11.7C342.3,273.5,341.8,256.2,338.2,252.3z"/>
<path style="fill:#E0BC24;" d="M316.1,264.7c0,0-2.9-4.2-5.8-1.7c-3.3,2.8-5.5,18.6,14.2,28.7l5.8-9L316.1,264.7z"/>
<path style="fill:#C6A414;" d="M336.9,268c-3.1-3.3-7,1.2-7,1.2L315,287.3l5.6,11.2C340.9,288.2,340.3,271.6,336.9,268z"/>
<path style="fill:#D8B421;" d="M315.3,280.4c0,0-2.8-4-5.6-1.6c-3.1,2.7-5.3,17.8,13.6,27.5l5.6-8.6L315.3,280.4z"/>
<path style="fill:#E0BC24;" d="M335.6,283.7c-2.9-3.1-6.7,1.1-6.7,1.1l-14.3,17.4l5.3,10.8C339.4,303.1,338.9,287.2,335.6,283.7z"/>
<path style="fill:#C6A414;" d="M314.6,296.1c0,0-2.6-3.8-5.3-1.6c-3,2.5-5,17,13,26.3l5.4-8.3L314.6,296.1z"/>
<path style="fill:#D8B421;" d="M334.3,299.5c-2.8-3-6.4,1.1-6.4,1.1l-13.6,16.6l5.1,10.3C337.9,318.1,337.4,302.9,334.3,299.5z"/>
<path style="fill:#E0BC24;" d="M313.9,311.5c0,0-2.5-3.7-5.1-1.5c-2.9,2.4-4.8,16.3,12.4,25.1l5.1-7.9L313.9,311.5z"/>
<path style="fill:#C6A414;" d="M333,315c-2.7-2.9-6.1,1-6.1,1l-13,15.8l4.9,9.8C336.5,332.7,336,318.2,333,315z"/>
<path style="fill:#D8B421;" d="M313.1,327.1c0,0-2.4-3.5-4.9-1.4c-2.7,2.3-4.6,15.5,11.8,23.9l4.9-7.5L313.1,327.1z"/>
<path style="fill:#E0BC24;" d="M331.7,330.7c-2.6-2.7-5.8,1-5.8,1l-12.4,15.1l4.6,9.4C335,347.6,334.6,333.8,331.7,330.7z"/>
<path style="fill:#C6A414;" d="M312.2,342.3c0,0-2.4-3.5-4.9-1.4c-2.8,2.3-4.6,15.6,11.9,24.1l4.9-7.6L312.2,342.3z"/>
<path style="fill:#D8B421;" d="M330.4,346.6c-2.4-2.6-5.5,0.9-5.5,0.9l-11.8,14.3l4.4,8.9C333.6,362.6,333.1,349.5,330.4,346.6z"/>
<g>
	<path style="fill:#E0BC24;" d="M311.5,357.7c0,0-2.3-3.3-4.6-1.4c-2.6,2.2-4.3,14.7,11.2,22.7l4.6-7.1L311.5,357.7z"/>
	<path style="fill:#E0BC24;" d="M309.5,396.7c0,0-2-3-4.1-1.2c-2.3,2-3.9,13.2,10.1,20.3l4.1-6.4L309.5,396.7z"/>
</g>
<path style="fill:#C6A414;" d="M328.8,362.5c-2.2-2.4-5,0.9-5,0.9l-10.7,13l4,8.1C331.7,377.1,331.3,365.1,328.8,362.5z"/>
<path style="fill:#D8B421;" d="M310.8,372.5c0,0-2.2-3.1-4.4-1.3c-2.5,2.1-4.1,13.9,10.7,21.5l4.4-6.8L310.8,372.5z"/>
<path style="fill:#E0BC24;" d="M328.3,377.2c-2.3-2.5-5.2,0.9-5.2,0.9l-11.2,13.6l4.2,8.4C331.2,392.4,330.8,379.9,328.3,377.2z"/>
<path style="fill:#C6A414;" d="M310.2,386.1c0,0-2-3-4.1-1.2c-2.3,2-3.9,13.2,10.1,20.3l4.1-6.4L310.2,386.1z"/>
<path style="fill:#D8B421;" d="M327,392c-2.2-2.3-4.9,0.8-4.9,0.8l-10.5,12.8l3.9,8C329.8,406.3,329.4,394.6,327,392z"/>
<polygon style="fill:#C6A414;" points="325.6,413.9 303.7,412.6 303.2,420.4 327.3,444.8 "/>
<polygon style="fill:#E0BC24;" points="303.7,412.6 303.2,420.4 312.9,444 325.6,413.9 "/>
<polygon style="fill:#D8B421;" points="303.7,412.6 298.4,443.1 325.6,413.9 "/>
<rect x="309.885" y="397.358" transform="matrix(-0.058 0.9983 -0.9983 -0.058 740.8274 117.8081)" style="fill:#D65122;" width="9.9" height="22.1"/>
<path style="fill:#C6A414;" d="M184.3,249.9c-3.1-2.6-6.1,1.8-6.1,1.8l-14.8,18.7l6.1,9.4C190,269.2,187.7,252.8,184.3,249.9z"/>
<path style="fill:#D8B421;" d="M164,253.6c0,0-4.1-4.7-7.3-1.2c-3.6,3.8-4.1,21.1,17,31.8l5.8-11.7L164,253.6z"/>
<path style="fill:#E0BC24;" d="M184.6,263c-2.9-2.5-5.8,1.7-5.8,1.7l-14.2,18l5.8,9C190.1,281.6,187.9,265.8,184.6,263z"/>
<path style="fill:#C6A414;" d="M165,269.2c0,0-3.9-4.5-7-1.2c-3.4,3.7-4,20.3,16.3,30.5l5.6-11.2L165,269.2z"/>
<path style="fill:#D8B421;" d="M185.1,278.8c-2.8-2.4-5.6,1.6-5.6,1.6l-13.6,17.2l5.6,8.6C190.4,296.6,188.3,281.4,185.1,278.8z"/>
<path style="fill:#E0BC24;" d="M166,284.9c0,0-3.7-4.3-6.7-1.1c-3.3,3.5-3.8,19.4,15.6,29.3l5.3-10.8L166,284.9z"/>
<path style="fill:#C6A414;" d="M185.7,294.5c-2.7-2.3-5.3,1.6-5.3,1.6l-13,16.5l5.4,8.3C190.7,311.6,188.7,297.1,185.7,294.5z"/>
<path style="fill:#D8B421;" d="M167,300.6c0,0-3.6-4.1-6.4-1.1c-3.1,3.4-3.6,18.6,15,28l5.1-10.3L167,300.6z"/>
<path style="fill:#E0BC24;" d="M186.2,310c-2.6-2.2-5.1,1.5-5.1,1.5l-12.4,15.7l5.1,7.9C190.9,326.3,189,312.4,186.2,310z"/>
<path style="fill:#C6A414;" d="M168,316c0,0-3.4-3.9-6.1-1c-3,3.2-3.5,17.7,14.3,26.7l4.9-9.8L168,316z"/>
<path style="fill:#D8B421;" d="M186.7,325.7c-2.5-2.1-4.9,1.4-4.9,1.4l-11.9,15l4.9,7.5C191.2,341.2,189.4,328,186.7,325.7z"/>
<path style="fill:#E0BC24;" d="M169,331.7c0,0-3.3-3.7-5.8-1c-2.9,3-3.3,16.9,13.6,25.4l4.6-9.4L169,331.7z"/>
<path style="fill:#C6A414;" d="M187.6,340.8c-2.5-2.1-4.9,1.4-4.9,1.4l-11.9,15.1l4.9,7.6C192.2,356.4,190.4,343.2,187.6,340.8z"/>
<path style="fill:#D8B421;" d="M170,347.5c0,0-3.1-3.5-5.5-0.9c-2.7,2.9-3.1,16,12.9,24.2l4.4-8.9L170,347.5z"/>
<g>
	<path style="fill:#E0BC24;" d="M188,356.4c-2.3-2-4.6,1.4-4.6,1.4L172.1,372l4.6,7.1C192.4,371.1,190.6,358.6,188,356.4z"/>
	<path style="fill:#E0BC24;" d="M189.5,395.5c-2.1-1.8-4.1,1.2-4.1,1.2l-10.1,12.7l4.1,6.4C193.4,408.7,191.8,397.5,189.5,395.5z"/>
</g>
<path style="fill:#C6A414;" d="M171.1,363.3c0,0-2.8-3.2-5-0.9c-2.5,2.6-2.9,14.6,11.7,22l4-8.1L171.1,363.3z"/>
<path style="fill:#D8B421;" d="M188.5,371.2c-2.2-1.9-4.4,1.3-4.4,1.3L173.4,386l4.4,6.8C192.6,385.2,190.9,373.3,188.5,371.2z"/>
<path style="fill:#E0BC24;" d="M171.9,378.1c0,0-2.9-3.4-5.2-0.9c-2.6,2.7-3,15.2,12.2,22.9l4.2-8.4L171.9,378.1z"/>
<path style="fill:#C6A414;" d="M188.9,384.9c-2.1-1.8-4.1,1.2-4.1,1.2l-10.1,12.7l4.1,6.4C192.8,398.1,191.2,386.9,188.9,384.9z"/>
<path style="fill:#D8B421;" d="M172.8,392.8c0,0-2.8-3.2-4.9-0.8c-2.4,2.6-2.8,14.4,11.6,21.6l3.9-8L172.8,392.8z"/>
<polygon style="fill:#C6A414;" points="191.3,412.6 169.3,413.9 167.6,444.8 191.7,420.4 "/>
<polygon style="fill:#E0BC24;" points="191.3,412.6 169.3,413.9 182,444 191.7,420.4 "/>
<polygon style="fill:#D8B421;" points="191.2,412.6 169.3,413.9 196.5,443.1 "/>
<rect x="169" y="403.49" transform="matrix(-0.9983 0.0579 -0.0579 -0.9983 383.4474 805.7694)" style="fill:#D65122;" width="22.1" height="9.9"/>
<path style="fill:#F4B382;" d="M248.1,89.6c-44,0-79.8,5.7-79.8,98.1c0,31.3,5.6,46.4,14,65.3c18.4,41.6,50.3,56.1,65.8,56.1
	s47.3-14.5,65.8-56.1c8.4-18.9,14-34,14-65.3C327.9,95.3,292.1,89.6,248.1,89.6z"/>
<path style="fill:#E0BC24;" d="M248.1,61.6c-57.3,0-83.5,25.1-83.5,117.5c0,0,20.9,2.6,45.8-22.3c12.2-12.2,37.6-34.7,37.6-34.7
	s25.5,22.5,37.7,34.7c25,24.9,45.9,22.3,45.9,22.3C331.6,86.7,305.4,61.6,248.1,61.6z"/>
<path style="fill:#191919;" d="M305.7,189.3c-0.2-0.6-1.9-2.1-2.9-3c-12.2-11.5-25.7-8.7-33.6-5.8c-3.4,1.3-5.5,1.9-4.6,5.1
	c0.9,2.9,2.9,2.6,3.9,2.4c0.9-0.2,2.5-1,3.7-1.4c17.7-6.4,22.7-1.1,27.1,0.6C303.9,189,305.9,189.9,305.7,189.3z"/>
<path style="fill:#CE9163;" d="M236.2,244.7c-0.4-1.5-0.5-3-0.8-4.7c-0.7,0.8-1,1.7-1.2,2.6c-0.2,0.9-0.2,1.8,0,2.6s0.7,1.7,1.4,2.3
	c0.7,0.7,1.7,1.1,2.8,1.3C237.2,247.4,236.6,246.2,236.2,244.7z"/>
<g>
	<path style="fill:#AD7550;" d="M244.7,244.8c-0.3-0.6-0.8-1.1-1.4-1.4c-0.6-0.3-1.3-0.4-2.2-0.2c-0.8,0.1-1.8,0.6-2.6,1.3
		c1.5-0.1,2.7,0.1,3.7,0.6s1.9,1.2,3,1.9C245.2,246.1,245,245.4,244.7,244.8z"/>
	<path style="fill:#AD7550;" d="M255.4,243.2c-0.8-0.2-1.6,0-2.2,0.2c-0.6,0.3-1.1,0.8-1.4,1.4c-0.3,0.6-0.5,1.3-0.4,2.2
		c1.1-0.7,1.9-1.4,3-1.9c1-0.5,2.1-0.7,3.7-0.6C257.2,243.8,256.3,243.4,255.4,243.2z"/>
</g>
<g>
	<path style="fill:#CE9163;" d="M262,242.6c-0.2-0.9-0.6-1.8-1.2-2.6c-0.3,1.7-0.4,3.2-0.8,4.7s-1,2.7-2.2,4.1
		c1.1-0.2,2.1-0.7,2.8-1.3c0.7-0.7,1.1-1.5,1.4-2.3C262.2,244.3,262.2,243.4,262,242.6z"/>
	<path style="fill:#CE9163;" d="M256.1,213.7c0.1-2.7,0.3-5.3,0.7-7.9c0.4-2.6,1.1-5.2,2.1-7.8c-1.7,2.2-2.9,4.7-3.7,7.4
		c-0.8,2.7-1.1,5.5-1.2,8.2c-0.1,2.8,0.2,5.5,0.7,8.3c0.5,2.7,1.2,5.4,2.4,7.9C256.5,224.4,256,219,256.1,213.7z"/>
	<path style="fill:#CE9163;" d="M240.1,211.4c-0.1-0.9-0.2-1.9-0.5-2.8c-0.2-0.9-0.6-1.8-1.1-2.6c-0.1,1-0.1,1.9-0.1,2.8
		c0,0.9,0.1,1.8,0.1,2.7c0.1,0.9,0.1,1.8,0.3,2.7c0.1,0.9,0.3,1.8,0.5,2.8c0.4-0.9,0.5-1.8,0.6-2.8
		C240.2,213.3,240.2,212.4,240.1,211.4z"/>
</g>
<path style="fill:#472B14;" d="M264.7,204.8c0,0.5,2.3,7.6,19.4,5.3c11.1-1.5,11.8-12.2,11.8-12.2
	C275.6,186.6,264.7,204.8,264.7,204.8z"/>
<path style="fill:#F7F0EB;" d="M264.7,204.8c0.1,1.1,1.1,1.5,2,1.8c24.5,8.5,28.2-7.4,28.2-7.4C275.1,191.7,264.7,204.8,264.7,204.8
	z"/>
<ellipse style="fill:#0C2D15;" cx="281.7" cy="201.5" rx="6.1" ry="6"/>
<path style="fill:#191919;" d="M295.3,196.1c-23.5-11.7-30.6,8.7-30.6,8.7s10-12.5,28.9-6.1c0.4,0,0.9,0.2,1.3,0.4
	c4.8,2.6,5.3-1.4,5.3-1.4C298.2,197.7,295.3,196.1,295.3,196.1z"/>
<path style="fill:#472B14;" d="M200.1,197.9c0,0,0.7,10.7,11.8,12.2c17.1,2.3,19.4-4.8,19.4-5.3
	C231.3,204.8,220.4,186.6,200.1,197.9z"/>
<path style="fill:#F7F0EB;" d="M201.1,199.2c0,0,3.7,15.9,28.2,7.4c0.9-0.3,1.9-0.8,2-1.8C231.3,204.8,220.8,191.7,201.1,199.2z"/>
<ellipse style="fill:#0C2D15;" cx="214.3" cy="201.5" rx="6.1" ry="6"/>
<g>
	<path style="fill:#191919;" d="M200.7,196.1c0,0-3,1.6-4.8,1.6c0,0,0.4,4,5.3,1.4c0.4-0.2,0.8-0.3,1.3-0.4
		c18.9-6.4,28.9,6.1,28.9,6.1S224.2,184.3,200.7,196.1z"/>
	<path style="fill:#191919;" d="M226.8,180.5c-7.9-2.9-21.3-5.7-33.6,5.8c-1,0.9-2.7,2.4-2.9,3s1.7-0.3,6.4-2.2
		c4.4-1.8,9.4-7,27.1-0.6c1.2,0.4,2.7,1.2,3.7,1.4c0.9,0.2,3,0.5,3.9-2.4C232.3,182.4,230.2,181.8,226.8,180.5z"/>
</g>
<path style="fill:#E24444;" d="M258.5,257.8c-3-0.4-10.4,2.5-10.4,2.5s-7.6-2.9-10.6-2.5c-4.8,0.7-11.9,9-11.9,10.3
	c0,0,10.1,5.2,22.5,5.2s22.5-5.2,22.5-5.2S263.4,258.5,258.5,257.8z"/>
<path style="fill:#D33D3D;" d="M254.2,264.4c-2-0.1-4.5,1.7-6.1,1.7c-1.9,0-4.8-1.8-7-1.6c-13.1,0.8-15.5,3.6-15.5,3.6
	s10.1,9.1,22.5,9.1s22.5-9.1,22.5-9.1S267.9,265.2,254.2,264.4z"/>
<g>
	<path style="fill:#C11111;" d="M248.1,55.4c-57.8,0-104.6,7.4-104.6,128.6c0,41,7.3,60.8,18.3,85.6c24.2,54.5,66,73.6,86.3,73.6
		s62.1-19.1,86.3-73.6c11-24.8,18.3-44.6,18.3-85.6C352.7,62.9,305.9,55.4,248.1,55.4z M313.9,253c-18.5,41.6-50.4,56.1-65.8,56.1
		s-47.3-14.5-65.8-56.1c-8.4-18.9-14-34-14-65.3c0,0,19.8-83.9,79.8-83.9s79.8,83.9,79.8,83.9C327.9,219,322.3,234.1,313.9,253z"/>
	<path style="fill:#C11111;" d="M290.1,361c-22.9-7.3-31.8-49.5-38.5-46s-5.5,52.4,14.2,58.6c24,7.6,33,23.9,33,23.9
		S314.1,368.6,290.1,361z"/>
	<path style="fill:#C11111;" d="M244.6,315c-6.7-3.5-15.6,38.7-38.5,46c-24,7.6-8.7,36.5-8.7,36.5s9-16.3,33-23.9
		C250.1,367.4,251.3,318.4,244.6,315z"/>
</g>
<g>
</g>
<g>
</g>
<g>
</g>
<g>
</g>
<g>
</g>
<g>
</g>
<g>
</g>
<g>
</g>
<g>
</g>
<g>
</g>
<g>
</g>
<g>
</g>
<g>
</g>
<g>
</g>
<g>
</g>
</svg>
